<svg xmlns="http://www.w3.org/2000/svg" xmlns:xlink="http://www.w3.org/1999/xlink" width="389" zoomAndPan="magnify" viewBox="0 0 291.75 80.999996" height="108" preserveAspectRatio="xMidYMid meet" version="1.0"><defs><g/><clipPath id="f74d02f90d"><path d="M 151.207031 59.230469 L 157.320312 59.230469 L 157.320312 65.34375 L 151.207031 65.34375 Z M 151.207031 59.230469 " clip-rule="nonzero"/></clipPath><clipPath id="666e983744"><path d="M 154.265625 59.230469 C 152.574219 59.230469 151.207031 60.597656 151.207031 62.285156 C 151.207031 63.972656 152.574219 65.34375 154.265625 65.34375 C 155.953125 65.34375 157.320312 63.972656 157.320312 62.285156 C 157.320312 60.597656 155.953125 59.230469 154.265625 59.230469 Z M 154.265625 59.230469 " clip-rule="nonzero"/></clipPath><clipPath id="a148c82502"><path d="M 0.207031 0.230469 L 6.320312 0.230469 L 6.320312 6.34375 L 0.207031 6.34375 Z M 0.207031 0.230469 " clip-rule="nonzero"/></clipPath><clipPath id="0c25e4c163"><path d="M 3.265625 0.230469 C 1.574219 0.230469 0.207031 1.597656 0.207031 3.285156 C 0.207031 4.972656 1.574219 6.34375 3.265625 6.34375 C 4.953125 6.34375 6.320312 4.972656 6.320312 3.285156 C 6.320312 1.597656 4.953125 0.230469 3.265625 0.230469 Z M 3.265625 0.230469 " clip-rule="nonzero"/></clipPath><clipPath id="b924616ac2"><rect x="0" width="7" y="0" height="7"/></clipPath></defs><g clip-path="url(#f74d02f90d)"><g clip-path="url(#666e983744)"><g transform="matrix(1, 0, 0, 1, 151, 59)"><g clip-path="url(#b924616ac2)"><g clip-path="url(#a148c82502)"><g clip-path="url(#0c25e4c163)"><path fill="#6b9076" d="M 0.207031 0.230469 L 6.320312 0.230469 L 6.320312 6.34375 L 0.207031 6.34375 Z M 0.207031 0.230469 " fill-opacity="1" fill-rule="nonzero"/></g></g></g></g></g></g><g fill="#ffffff" fill-opacity="1"><g transform="translate(14.677211, 39.065229)"><g><path d="M 18.859375 -11.640625 C 20.097656 -11.234375 21.078125 -10.554688 21.796875 -9.609375 C 22.523438 -8.660156 22.890625 -7.484375 22.890625 -6.078125 C 22.890625 -4.140625 22.140625 -2.640625 20.640625 -1.578125 C 19.148438 -0.523438 16.976562 0 14.125 0 L 3 0 L 3 -22.375 L 13.484375 -22.375 C 16.128906 -22.375 18.164062 -21.859375 19.59375 -20.828125 C 21.019531 -19.796875 21.734375 -18.375 21.734375 -16.5625 C 21.734375 -15.445312 21.476562 -14.460938 20.96875 -13.609375 C 20.457031 -12.765625 19.753906 -12.109375 18.859375 -11.640625 Z M 7.15625 -19.125 L 7.15625 -12.953125 L 13.046875 -12.953125 C 14.492188 -12.953125 15.601562 -13.210938 16.375 -13.734375 C 17.15625 -14.253906 17.546875 -15.015625 17.546875 -16.015625 C 17.546875 -17.035156 17.15625 -17.804688 16.375 -18.328125 C 15.601562 -18.859375 14.492188 -19.125 13.046875 -19.125 Z M 13.875 -3.265625 C 17.09375 -3.265625 18.703125 -4.335938 18.703125 -6.484375 C 18.703125 -8.640625 17.09375 -9.71875 13.875 -9.71875 L 7.15625 -9.71875 L 7.15625 -3.265625 Z M 13.875 -3.265625 "/></g></g></g><g fill="#ffffff" fill-opacity="1"><g transform="translate(39.002377, 39.065229)"><g><path d="M 9.140625 -17.265625 C 11.660156 -17.265625 13.582031 -16.660156 14.90625 -15.453125 C 16.238281 -14.253906 16.90625 -12.4375 16.90625 -10 L 16.90625 0 L 13.140625 0 L 13.140625 -2.078125 C 12.648438 -1.328125 11.953125 -0.753906 11.046875 -0.359375 C 10.140625 0.0234375 9.046875 0.21875 7.765625 0.21875 C 6.484375 0.21875 5.363281 0 4.40625 -0.4375 C 3.445312 -0.875 2.707031 -1.476562 2.1875 -2.25 C 1.664062 -3.03125 1.40625 -3.910156 1.40625 -4.890625 C 1.40625 -6.421875 1.972656 -7.648438 3.109375 -8.578125 C 4.253906 -9.503906 6.050781 -9.96875 8.5 -9.96875 L 12.921875 -9.96875 L 12.921875 -10.234375 C 12.921875 -11.421875 12.5625 -12.332031 11.84375 -12.96875 C 11.132812 -13.613281 10.070312 -13.9375 8.65625 -13.9375 C 7.695312 -13.9375 6.753906 -13.785156 5.828125 -13.484375 C 4.898438 -13.191406 4.117188 -12.78125 3.484375 -12.25 L 1.921875 -15.15625 C 2.816406 -15.832031 3.890625 -16.351562 5.140625 -16.71875 C 6.398438 -17.082031 7.734375 -17.265625 9.140625 -17.265625 Z M 8.59375 -2.6875 C 9.601562 -2.6875 10.492188 -2.914062 11.265625 -3.375 C 12.046875 -3.832031 12.597656 -4.488281 12.921875 -5.34375 L 12.921875 -7.328125 L 8.796875 -7.328125 C 6.492188 -7.328125 5.34375 -6.566406 5.34375 -5.046875 C 5.34375 -4.328125 5.628906 -3.753906 6.203125 -3.328125 C 6.773438 -2.898438 7.570312 -2.6875 8.59375 -2.6875 Z M 8.59375 -2.6875 "/></g></g></g><g fill="#ffffff" fill-opacity="1"><g transform="translate(58.564818, 39.065229)"><g><path d="M 10.453125 0.21875 C 8.679688 0.21875 7.09375 -0.148438 5.6875 -0.890625 C 4.28125 -1.640625 3.179688 -2.679688 2.390625 -4.015625 C 1.609375 -5.347656 1.21875 -6.851562 1.21875 -8.53125 C 1.21875 -10.21875 1.609375 -11.722656 2.390625 -13.046875 C 3.179688 -14.367188 4.273438 -15.398438 5.671875 -16.140625 C 7.066406 -16.890625 8.660156 -17.265625 10.453125 -17.265625 C 12.140625 -17.265625 13.613281 -16.921875 14.875 -16.234375 C 16.144531 -15.554688 17.101562 -14.578125 17.75 -13.296875 L 14.671875 -11.515625 C 14.179688 -12.296875 13.566406 -12.882812 12.828125 -13.28125 C 12.097656 -13.675781 11.296875 -13.875 10.421875 -13.875 C 8.929688 -13.875 7.695312 -13.390625 6.71875 -12.421875 C 5.738281 -11.453125 5.25 -10.15625 5.25 -8.53125 C 5.25 -6.914062 5.734375 -5.625 6.703125 -4.65625 C 7.671875 -3.6875 8.910156 -3.203125 10.421875 -3.203125 C 11.296875 -3.203125 12.097656 -3.394531 12.828125 -3.78125 C 13.566406 -4.175781 14.179688 -4.769531 14.671875 -5.5625 L 17.75 -3.765625 C 17.082031 -2.492188 16.113281 -1.507812 14.84375 -0.8125 C 13.582031 -0.125 12.117188 0.21875 10.453125 0.21875 Z M 10.453125 0.21875 "/></g></g></g><g fill="#ffffff" fill-opacity="1"><g transform="translate(76.9765, 39.065229)"><g><path d="M 9.59375 -7.328125 L 6.625 -4.5 L 6.625 0 L 2.625 0 L 2.625 -23.71875 L 6.625 -23.71875 L 6.625 -9.40625 L 14.890625 -17.078125 L 19.6875 -17.078125 L 12.5625 -9.90625 L 20.359375 0 L 15.5 0 Z M 9.59375 -7.328125 "/></g></g></g><g fill="#c8aa6e" fill-opacity="1"><g transform="translate(99.522904, 39.065229)"><g><path d="M 20.683594 -5.203125 L 16.207031 -5.203125 L 16.207031 -5.882812 L 16.886719 -5.882812 L 16.886719 0.679688 L 13.226562 0.679688 L 13.226562 -5.882812 L 13.90625 -5.882812 L 13.90625 -5.203125 L 0.597656 -5.203125 L 0.597656 -7.78125 L 12.8125 -23.058594 L 17.101562 -23.058594 L 4.785156 -7.507812 L 4.25 -7.929688 L 4.25 -8.605469 L 13.96875 -8.605469 L 13.96875 -7.929688 L 13.289062 -7.929688 L 13.289062 -13.785156 L 16.886719 -13.785156 L 16.886719 -7.929688 L 16.207031 -7.929688 L 16.207031 -8.605469 L 21.363281 -8.605469 L 21.363281 -5.203125 Z M 20.683594 -6.5625 L 20.683594 -5.882812 L 20.003906 -5.882812 L 20.003906 -7.929688 L 20.683594 -7.929688 L 20.683594 -7.25 L 15.527344 -7.25 L 15.527344 -13.105469 L 16.207031 -13.105469 L 16.207031 -12.425781 L 13.96875 -12.425781 L 13.96875 -13.105469 L 14.648438 -13.105469 L 14.648438 -7.25 L 2.847656 -7.25 L 15.164062 -22.800781 L 15.695312 -22.378906 L 15.695312 -21.699219 L 13.140625 -21.699219 L 13.140625 -22.378906 L 13.667969 -21.953125 L 1.808594 -7.121094 L 1.277344 -7.542969 L 1.957031 -7.542969 L 1.957031 -5.882812 L 1.277344 -5.882812 L 1.277344 -6.5625 L 14.585938 -6.5625 L 14.585938 0 L 13.90625 0 L 13.90625 -0.679688 L 16.207031 -0.679688 L 16.207031 0 L 15.527344 0 L 15.527344 -6.5625 Z M 20.683594 -6.5625 "/></g></g></g><g fill="#c8aa6e" fill-opacity="1"><g transform="translate(120.651603, 39.065229)"><g><path d="M 10.582031 0.871094 C 8.714844 0.871094 7.050781 0.375 5.582031 -0.621094 C 4.121094 -1.609375 2.984375 -3.023438 2.175781 -4.855469 C 1.378906 -6.660156 0.984375 -8.769531 0.984375 -11.1875 C 0.984375 -13.605469 1.378906 -15.71875 2.175781 -17.519531 C 2.984375 -19.355469 4.121094 -20.769531 5.582031 -21.757812 C 7.050781 -22.75 8.714844 -23.25 10.582031 -23.25 C 12.445312 -23.25 14.113281 -22.75 15.582031 -21.757812 C 17.042969 -20.769531 18.183594 -19.355469 19 -17.523438 C 19.808594 -15.71875 20.210938 -13.609375 20.210938 -11.1875 C 20.210938 -8.769531 19.808594 -6.65625 19 -4.851562 C 18.183594 -3.019531 17.042969 -1.609375 15.582031 -0.621094 C 14.113281 0.375 12.445312 0.871094 10.582031 0.871094 Z M 10.582031 -0.488281 C 12.167969 -0.488281 13.582031 -0.90625 14.820312 -1.746094 C 16.066406 -2.589844 17.046875 -3.808594 17.761719 -5.40625 C 18.488281 -7.035156 18.851562 -8.960938 18.851562 -11.1875 C 18.851562 -13.414062 18.488281 -15.34375 17.761719 -16.96875 C 17.046875 -18.566406 16.066406 -19.789062 14.820312 -20.632812 C 13.582031 -21.46875 12.167969 -21.890625 10.582031 -21.890625 C 8.992188 -21.890625 7.582031 -21.46875 6.34375 -20.632812 C 5.097656 -19.789062 4.121094 -18.570312 3.417969 -16.972656 C 2.699219 -15.34375 2.339844 -13.417969 2.339844 -11.1875 C 2.339844 -8.960938 2.699219 -7.035156 3.417969 -5.40625 C 4.121094 -3.808594 5.097656 -2.589844 6.34375 -1.746094 C 7.582031 -0.90625 8.992188 -0.488281 10.582031 -0.488281 Z M 10.582031 -2.597656 C 11.734375 -2.597656 12.746094 -2.917969 13.617188 -3.554688 C 14.503906 -4.203125 15.199219 -5.15625 15.703125 -6.421875 C 16.226562 -7.726562 16.488281 -9.316406 16.488281 -11.1875 C 16.488281 -13.0625 16.226562 -14.652344 15.703125 -15.957031 C 15.199219 -17.21875 14.503906 -18.175781 13.617188 -18.824219 C 12.746094 -19.460938 11.734375 -19.78125 10.582031 -19.78125 C 9.429688 -19.78125 8.417969 -19.460938 7.546875 -18.824219 C 6.660156 -18.175781 5.964844 -17.21875 5.457031 -15.957031 C 4.9375 -14.652344 4.675781 -13.0625 4.675781 -11.1875 C 4.675781 -9.316406 4.9375 -7.726562 5.457031 -6.421875 C 5.964844 -5.15625 6.660156 -4.203125 7.546875 -3.554688 C 8.417969 -2.917969 9.429688 -2.597656 10.582031 -2.597656 Z M 10.582031 -1.238281 C 9.132812 -1.238281 7.855469 -1.644531 6.742188 -2.457031 C 5.648438 -3.257812 4.796875 -4.410156 4.195312 -5.917969 C 3.609375 -7.382812 3.316406 -9.140625 3.316406 -11.1875 C 3.316406 -13.238281 3.609375 -14.992188 4.195312 -16.460938 C 4.796875 -17.964844 5.648438 -19.121094 6.742188 -19.921875 C 7.855469 -20.734375 9.132812 -21.140625 10.582031 -21.140625 C 12.027344 -21.140625 13.308594 -20.734375 14.417969 -19.921875 C 15.515625 -19.121094 16.363281 -17.964844 16.964844 -16.460938 C 17.554688 -14.992188 17.847656 -13.238281 17.847656 -11.1875 C 17.847656 -9.140625 17.554688 -7.382812 16.964844 -5.917969 C 16.363281 -4.410156 15.515625 -3.257812 14.417969 -2.457031 C 13.308594 -1.644531 12.027344 -1.238281 10.582031 -1.238281 Z M 10.582031 -1.238281 "/></g></g></g><g fill="#c8aa6e" fill-opacity="1"><g transform="translate(99.522904, 39.065229)"><g><path d="M 20.6875 -5.875 L 16.203125 -5.875 L 16.203125 0 L 13.90625 0 L 13.90625 -5.875 L 1.28125 -5.875 L 1.28125 -7.546875 L 13.140625 -22.375 L 15.703125 -22.375 L 4.25 -7.921875 L 13.96875 -7.921875 L 13.96875 -13.109375 L 16.203125 -13.109375 L 16.203125 -7.921875 L 20.6875 -7.921875 Z M 20.6875 -5.875 "/></g></g></g><g fill="#c8aa6e" fill-opacity="1"><g transform="translate(120.651603, 39.065229)"><g><path d="M 10.578125 0.1875 C 8.859375 0.1875 7.320312 -0.269531 5.96875 -1.1875 C 4.613281 -2.101562 3.554688 -3.414062 2.796875 -5.125 C 2.035156 -6.84375 1.65625 -8.863281 1.65625 -11.1875 C 1.65625 -13.507812 2.035156 -15.53125 2.796875 -17.25 C 3.554688 -18.96875 4.613281 -20.28125 5.96875 -21.1875 C 7.320312 -22.101562 8.859375 -22.5625 10.578125 -22.5625 C 12.304688 -22.5625 13.847656 -22.101562 15.203125 -21.1875 C 16.554688 -20.28125 17.613281 -18.96875 18.375 -17.25 C 19.144531 -15.53125 19.53125 -13.507812 19.53125 -11.1875 C 19.53125 -8.863281 19.144531 -6.84375 18.375 -5.125 C 17.613281 -3.414062 16.554688 -2.101562 15.203125 -1.1875 C 13.847656 -0.269531 12.304688 0.1875 10.578125 0.1875 Z M 10.578125 -1.921875 C 11.878906 -1.921875 13.023438 -2.28125 14.015625 -3 C 15.003906 -3.726562 15.773438 -4.785156 16.328125 -6.171875 C 16.890625 -7.554688 17.171875 -9.226562 17.171875 -11.1875 C 17.171875 -13.144531 16.890625 -14.816406 16.328125 -16.203125 C 15.773438 -17.585938 15.003906 -18.640625 14.015625 -19.359375 C 13.023438 -20.085938 11.878906 -20.453125 10.578125 -20.453125 C 9.273438 -20.453125 8.128906 -20.085938 7.140625 -19.359375 C 6.148438 -18.640625 5.378906 -17.585938 4.828125 -16.203125 C 4.273438 -14.816406 4 -13.144531 4 -11.1875 C 4 -9.226562 4.273438 -7.554688 4.828125 -6.171875 C 5.378906 -4.785156 6.148438 -3.726562 7.140625 -3 C 8.128906 -2.28125 9.273438 -1.921875 10.578125 -1.921875 Z M 10.578125 -1.921875 "/></g></g></g><g fill="#ffffff" fill-opacity="1"><g transform="translate(141.821797, 39.065229)"><g><path d="M 19.15625 -17.078125 L 19.15625 0 L 15.34375 0 L 15.34375 -2.171875 C 14.707031 -1.398438 13.910156 -0.804688 12.953125 -0.390625 C 11.992188 0.015625 10.957031 0.21875 9.84375 0.21875 C 7.5625 0.21875 5.765625 -0.410156 4.453125 -1.671875 C 3.148438 -2.941406 2.5 -4.828125 2.5 -7.328125 L 2.5 -17.078125 L 6.484375 -17.078125 L 6.484375 -7.859375 C 6.484375 -6.328125 6.828125 -5.179688 7.515625 -4.421875 C 8.210938 -3.671875 9.203125 -3.296875 10.484375 -3.296875 C 11.910156 -3.296875 13.046875 -3.738281 13.890625 -4.625 C 14.734375 -5.507812 15.15625 -6.78125 15.15625 -8.4375 L 15.15625 -17.078125 Z M 19.15625 -17.078125 "/></g></g></g><g fill="#ffffff" fill-opacity="1"><g transform="translate(163.589787, 39.065229)"><g><path d="M 12.890625 -0.921875 C 12.421875 -0.546875 11.847656 -0.257812 11.171875 -0.0625 C 10.503906 0.125 9.796875 0.21875 9.046875 0.21875 C 7.171875 0.21875 5.722656 -0.269531 4.703125 -1.25 C 3.679688 -2.226562 3.171875 -3.65625 3.171875 -5.53125 L 3.171875 -13.75 L 0.359375 -13.75 L 0.359375 -16.9375 L 3.171875 -16.9375 L 3.171875 -20.84375 L 7.15625 -20.84375 L 7.15625 -16.9375 L 11.734375 -16.9375 L 11.734375 -13.75 L 7.15625 -13.75 L 7.15625 -5.625 C 7.15625 -4.789062 7.359375 -4.15625 7.765625 -3.71875 C 8.171875 -3.28125 8.757812 -3.0625 9.53125 -3.0625 C 10.425781 -3.0625 11.171875 -3.296875 11.765625 -3.765625 Z M 12.890625 -0.921875 "/></g></g></g><g fill="#ffffff" fill-opacity="1"><g transform="translate(177.142843, 39.065229)"><g><path d="M 9.5625 -20.71875 C 7.875 -20.71875 7.03125 -19.800781 7.03125 -17.96875 L 7.03125 -16.9375 L 11.734375 -16.9375 L 11.734375 -13.75 L 7.15625 -13.75 L 7.15625 0 L 3.171875 0 L 3.171875 -13.75 L 0.359375 -13.75 L 0.359375 -16.9375 L 3.171875 -16.9375 L 3.171875 -18.03125 C 3.171875 -19.863281 3.703125 -21.304688 4.765625 -22.359375 C 5.828125 -23.410156 7.328125 -23.9375 9.265625 -23.9375 C 10.804688 -23.9375 12.015625 -23.628906 12.890625 -23.015625 L 11.765625 -20.015625 C 11.078125 -20.484375 10.34375 -20.71875 9.5625 -20.71875 Z M 9.5625 -20.71875 "/></g></g></g><g fill="#ffffff" fill-opacity="1"><g transform="translate(191.495237, 39.065229)"><g><path d="M 2.625 -17.078125 L 6.625 -17.078125 L 6.625 0 L 2.625 0 Z M 4.625 -19.890625 C 3.90625 -19.890625 3.300781 -20.117188 2.8125 -20.578125 C 2.320312 -21.035156 2.078125 -21.601562 2.078125 -22.28125 C 2.078125 -22.96875 2.320312 -23.539062 2.8125 -24 C 3.300781 -24.457031 3.90625 -24.6875 4.625 -24.6875 C 5.351562 -24.6875 5.960938 -24.46875 6.453125 -24.03125 C 6.941406 -23.59375 7.1875 -23.039062 7.1875 -22.375 C 7.1875 -21.675781 6.945312 -21.085938 6.46875 -20.609375 C 5.988281 -20.128906 5.375 -19.890625 4.625 -19.890625 Z M 4.625 -19.890625 "/></g></g></g><g fill="#ffffff" fill-opacity="1"><g transform="translate(200.733049, 39.065229)"><g><path d="M 12.890625 -0.921875 C 12.421875 -0.546875 11.847656 -0.257812 11.171875 -0.0625 C 10.503906 0.125 9.796875 0.21875 9.046875 0.21875 C 7.171875 0.21875 5.722656 -0.269531 4.703125 -1.25 C 3.679688 -2.226562 3.171875 -3.65625 3.171875 -5.53125 L 3.171875 -13.75 L 0.359375 -13.75 L 0.359375 -16.9375 L 3.171875 -16.9375 L 3.171875 -20.84375 L 7.15625 -20.84375 L 7.15625 -16.9375 L 11.734375 -16.9375 L 11.734375 -13.75 L 7.15625 -13.75 L 7.15625 -5.625 C 7.15625 -4.789062 7.359375 -4.15625 7.765625 -3.71875 C 8.171875 -3.28125 8.757812 -3.0625 9.53125 -3.0625 C 10.425781 -3.0625 11.171875 -3.296875 11.765625 -3.765625 Z M 12.890625 -0.921875 "/></g></g></g><g fill="#ffffff" fill-opacity="1"><g transform="translate(213.870526, 39.065229)"><g><path d="M 12.890625 -0.921875 C 12.421875 -0.546875 11.847656 -0.257812 11.171875 -0.0625 C 10.503906 0.125 9.796875 0.21875 9.046875 0.21875 C 7.171875 0.21875 5.722656 -0.269531 4.703125 -1.25 C 3.679688 -2.226562 3.171875 -3.65625 3.171875 -5.53125 L 3.171875 -13.75 L 0.359375 -13.75 L 0.359375 -16.9375 L 3.171875 -16.9375 L 3.171875 -20.84375 L 7.15625 -20.84375 L 7.15625 -16.9375 L 11.734375 -16.9375 L 11.734375 -13.75 L 7.15625 -13.75 L 7.15625 -5.625 C 7.15625 -4.789062 7.359375 -4.15625 7.765625 -3.71875 C 8.171875 -3.28125 8.757812 -3.0625 9.53125 -3.0625 C 10.425781 -3.0625 11.171875 -3.296875 11.765625 -3.765625 Z M 12.890625 -0.921875 "/></g></g></g><g fill="#ffffff" fill-opacity="1"><g transform="translate(226.848163, 39.065229)"><g><path d="M 18.671875 -8.4375 C 18.671875 -8.164062 18.648438 -7.769531 18.609375 -7.25 L 5.203125 -7.25 C 5.441406 -6 6.054688 -5.003906 7.046875 -4.265625 C 8.035156 -3.535156 9.265625 -3.171875 10.734375 -3.171875 C 12.617188 -3.171875 14.164062 -3.785156 15.375 -5.015625 L 17.515625 -2.5625 C 16.753906 -1.644531 15.785156 -0.953125 14.609375 -0.484375 C 13.429688 -0.015625 12.109375 0.21875 10.640625 0.21875 C 8.765625 0.21875 7.113281 -0.148438 5.6875 -0.890625 C 4.257812 -1.640625 3.15625 -2.679688 2.375 -4.015625 C 1.601562 -5.347656 1.21875 -6.851562 1.21875 -8.53125 C 1.21875 -10.195312 1.59375 -11.695312 2.34375 -13.03125 C 3.101562 -14.363281 4.15625 -15.398438 5.5 -16.140625 C 6.84375 -16.890625 8.351562 -17.265625 10.03125 -17.265625 C 11.695312 -17.265625 13.1875 -16.894531 14.5 -16.15625 C 15.8125 -15.425781 16.832031 -14.394531 17.5625 -13.0625 C 18.300781 -11.726562 18.671875 -10.1875 18.671875 -8.4375 Z M 10.03125 -14.0625 C 8.757812 -14.0625 7.679688 -13.679688 6.796875 -12.921875 C 5.910156 -12.171875 5.367188 -11.164062 5.171875 -9.90625 L 14.859375 -9.90625 C 14.691406 -11.144531 14.171875 -12.144531 13.296875 -12.90625 C 12.421875 -13.675781 11.332031 -14.0625 10.03125 -14.0625 Z M 10.03125 -14.0625 "/></g></g></g><g fill="#ffffff" fill-opacity="1"><g transform="translate(246.730237, 39.065229)"><g><path d="M 6.421875 -14.578125 C 7.578125 -16.367188 9.601562 -17.265625 12.5 -17.265625 L 12.5 -13.453125 C 12.15625 -13.523438 11.847656 -13.5625 11.578125 -13.5625 C 10.015625 -13.5625 8.796875 -13.109375 7.921875 -12.203125 C 7.054688 -11.296875 6.625 -9.988281 6.625 -8.28125 L 6.625 0 L 2.625 0 L 2.625 -17.078125 L 6.421875 -17.078125 Z M 6.421875 -14.578125 "/></g></g></g><g fill="#ffffff" fill-opacity="1"><g transform="translate(260.059536, 39.065229)"><g><path d="M 7.890625 0.21875 C 6.503906 0.21875 5.148438 0.0390625 3.828125 -0.3125 C 2.515625 -0.675781 1.460938 -1.132812 0.671875 -1.6875 L 2.203125 -4.734375 C 2.972656 -4.222656 3.894531 -3.8125 4.96875 -3.5 C 6.039062 -3.1875 7.101562 -3.03125 8.15625 -3.03125 C 10.539062 -3.03125 11.734375 -3.660156 11.734375 -4.921875 C 11.734375 -5.515625 11.425781 -5.925781 10.8125 -6.15625 C 10.207031 -6.394531 9.234375 -6.625 7.890625 -6.84375 C 6.484375 -7.050781 5.335938 -7.296875 4.453125 -7.578125 C 3.578125 -7.859375 2.8125 -8.34375 2.15625 -9.03125 C 1.507812 -9.71875 1.1875 -10.679688 1.1875 -11.921875 C 1.1875 -13.546875 1.863281 -14.84375 3.21875 -15.8125 C 4.570312 -16.78125 6.398438 -17.265625 8.703125 -17.265625 C 9.867188 -17.265625 11.035156 -17.128906 12.203125 -16.859375 C 13.378906 -16.597656 14.34375 -16.242188 15.09375 -15.796875 L 13.5625 -12.75 C 12.101562 -13.601562 10.46875 -14.03125 8.65625 -14.03125 C 7.488281 -14.03125 6.597656 -13.851562 5.984375 -13.5 C 5.378906 -13.15625 5.078125 -12.691406 5.078125 -12.109375 C 5.078125 -11.472656 5.398438 -11.019531 6.046875 -10.75 C 6.703125 -10.488281 7.710938 -10.238281 9.078125 -10 C 10.441406 -9.789062 11.5625 -9.546875 12.4375 -9.265625 C 13.3125 -8.992188 14.0625 -8.523438 14.6875 -7.859375 C 15.3125 -7.203125 15.625 -6.265625 15.625 -5.046875 C 15.625 -3.453125 14.929688 -2.175781 13.546875 -1.21875 C 12.171875 -0.257812 10.285156 0.21875 7.890625 0.21875 Z M 7.890625 0.21875 "/></g></g></g><g fill="#6b9076" fill-opacity="1"><g transform="translate(33.808931, 70.528901)"><g><path d="M 0.859375 -14.5625 C 1.148438 -14.539062 1.523438 -14.523438 1.984375 -14.515625 C 2.453125 -14.503906 2.914062 -14.5 3.375 -14.5 C 4.019531 -14.5 4.632812 -14.503906 5.21875 -14.515625 C 5.8125 -14.523438 6.234375 -14.53125 6.484375 -14.53125 C 7.585938 -14.53125 8.503906 -14.375 9.234375 -14.0625 C 9.972656 -13.75 10.523438 -13.320312 10.890625 -12.78125 C 11.253906 -12.238281 11.4375 -11.628906 11.4375 -10.953125 C 11.4375 -10.546875 11.351562 -10.109375 11.1875 -9.640625 C 11.019531 -9.171875 10.734375 -8.726562 10.328125 -8.3125 C 9.921875 -7.90625 9.367188 -7.566406 8.671875 -7.296875 C 7.972656 -7.035156 7.09375 -6.90625 6.03125 -6.90625 L 4.046875 -6.90625 L 4.046875 -7.3125 L 5.8125 -7.3125 C 6.789062 -7.3125 7.535156 -7.46875 8.046875 -7.78125 C 8.566406 -8.09375 8.914062 -8.503906 9.09375 -9.015625 C 9.28125 -9.523438 9.375 -10.097656 9.375 -10.734375 C 9.375 -11.816406 9.113281 -12.65625 8.59375 -13.25 C 8.082031 -13.84375 7.207031 -14.140625 5.96875 -14.140625 C 5.332031 -14.140625 4.914062 -14.023438 4.71875 -13.796875 C 4.53125 -13.566406 4.4375 -13.09375 4.4375 -12.375 L 4.4375 -2.171875 C 4.4375 -1.679688 4.476562 -1.3125 4.5625 -1.0625 C 4.644531 -0.820312 4.804688 -0.660156 5.046875 -0.578125 C 5.285156 -0.492188 5.640625 -0.4375 6.109375 -0.40625 L 6.109375 0 C 5.796875 -0.03125 5.398438 -0.046875 4.921875 -0.046875 C 4.453125 -0.0546875 3.976562 -0.0625 3.5 -0.0625 C 2.957031 -0.0625 2.453125 -0.0546875 1.984375 -0.046875 C 1.523438 -0.046875 1.148438 -0.03125 0.859375 0 L 0.859375 -0.40625 C 1.328125 -0.4375 1.679688 -0.492188 1.921875 -0.578125 C 2.160156 -0.660156 2.320312 -0.820312 2.40625 -1.0625 C 2.488281 -1.3125 2.53125 -1.679688 2.53125 -2.171875 L 2.53125 -12.375 C 2.53125 -12.882812 2.488281 -13.257812 2.40625 -13.5 C 2.320312 -13.738281 2.160156 -13.898438 1.921875 -13.984375 C 1.679688 -14.078125 1.328125 -14.128906 0.859375 -14.140625 Z M 4.140625 -7.265625 C 4.878906 -7.234375 5.457031 -7.195312 5.875 -7.15625 C 6.300781 -7.125 6.644531 -7.09375 6.90625 -7.0625 C 7.175781 -7.039062 7.4375 -7.007812 7.6875 -6.96875 C 8.601562 -6.820312 9.265625 -6.546875 9.671875 -6.140625 C 10.078125 -5.734375 10.375 -5.101562 10.5625 -4.25 L 11.078125 -2.15625 C 11.210938 -1.550781 11.351562 -1.113281 11.5 -0.84375 C 11.644531 -0.582031 11.867188 -0.457031 12.171875 -0.46875 C 12.398438 -0.488281 12.59375 -0.566406 12.75 -0.703125 C 12.914062 -0.835938 13.085938 -1.019531 13.265625 -1.25 L 13.578125 -1.03125 C 13.285156 -0.601562 12.984375 -0.273438 12.671875 -0.046875 C 12.367188 0.171875 11.9375 0.28125 11.375 0.28125 C 10.863281 0.28125 10.414062 0.132812 10.03125 -0.15625 C 9.644531 -0.457031 9.359375 -1.050781 9.171875 -1.9375 L 8.71875 -3.984375 C 8.59375 -4.578125 8.453125 -5.085938 8.296875 -5.515625 C 8.140625 -5.953125 7.921875 -6.289062 7.640625 -6.53125 C 7.359375 -6.78125 6.941406 -6.90625 6.390625 -6.90625 L 4.171875 -6.90625 Z M 4.140625 -7.265625 "/></g></g></g><g fill="#6b9076" fill-opacity="1"><g transform="translate(47.132113, 70.528901)"><g><path d="M 2.9375 -15.734375 C 3.289062 -15.734375 3.597656 -15.601562 3.859375 -15.34375 C 4.128906 -15.082031 4.265625 -14.773438 4.265625 -14.421875 C 4.265625 -14.054688 4.128906 -13.742188 3.859375 -13.484375 C 3.597656 -13.222656 3.289062 -13.09375 2.9375 -13.09375 C 2.582031 -13.09375 2.273438 -13.222656 2.015625 -13.484375 C 1.753906 -13.742188 1.625 -14.054688 1.625 -14.421875 C 1.625 -14.773438 1.753906 -15.082031 2.015625 -15.34375 C 2.273438 -15.601562 2.582031 -15.734375 2.9375 -15.734375 Z M 4.015625 -10.8125 L 4.015625 -1.90625 C 4.015625 -1.332031 4.132812 -0.941406 4.375 -0.734375 C 4.613281 -0.535156 5.015625 -0.4375 5.578125 -0.4375 L 5.578125 0 C 5.335938 -0.0078125 4.976562 -0.0234375 4.5 -0.046875 C 4.03125 -0.0664062 3.554688 -0.078125 3.078125 -0.078125 C 2.617188 -0.078125 2.148438 -0.0664062 1.671875 -0.046875 C 1.191406 -0.0234375 0.832031 -0.0078125 0.59375 0 L 0.59375 -0.4375 C 1.15625 -0.4375 1.554688 -0.535156 1.796875 -0.734375 C 2.035156 -0.941406 2.15625 -1.332031 2.15625 -1.90625 L 2.15625 -8.34375 C 2.15625 -8.96875 2.046875 -9.425781 1.828125 -9.71875 C 1.609375 -10.007812 1.195312 -10.15625 0.59375 -10.15625 L 0.59375 -10.59375 C 1.03125 -10.550781 1.457031 -10.53125 1.875 -10.53125 C 2.269531 -10.53125 2.648438 -10.550781 3.015625 -10.59375 C 3.378906 -10.644531 3.710938 -10.71875 4.015625 -10.8125 Z M 4.015625 -10.8125 "/></g></g></g><g fill="#6b9076" fill-opacity="1"><g transform="translate(53.156327, 70.528901)"><g><path d="M 10 -10.59375 L 10 -10.171875 C 9.738281 -10.148438 9.492188 -10.035156 9.265625 -9.828125 C 9.046875 -9.617188 8.84375 -9.253906 8.65625 -8.734375 L 5.28125 0.109375 C 5.226562 0.109375 5.171875 0.109375 5.109375 0.109375 C 5.054688 0.109375 5 0.109375 4.9375 0.109375 L 1.15625 -9 C 0.9375 -9.539062 0.71875 -9.867188 0.5 -9.984375 C 0.289062 -10.097656 0.109375 -10.15625 -0.046875 -10.15625 L -0.046875 -10.59375 C 0.234375 -10.570312 0.519531 -10.550781 0.8125 -10.53125 C 1.101562 -10.507812 1.421875 -10.5 1.765625 -10.5 C 2.191406 -10.5 2.640625 -10.503906 3.109375 -10.515625 C 3.585938 -10.535156 4.03125 -10.5625 4.4375 -10.59375 L 4.4375 -10.15625 C 4.09375 -10.15625 3.785156 -10.128906 3.515625 -10.078125 C 3.253906 -10.035156 3.085938 -9.90625 3.015625 -9.6875 C 2.941406 -9.46875 3.003906 -9.085938 3.203125 -8.546875 L 5.78125 -2.203125 L 5.65625 -2.09375 L 8 -8.25 C 8.175781 -8.695312 8.242188 -9.050781 8.203125 -9.3125 C 8.171875 -9.582031 8.035156 -9.785156 7.796875 -9.921875 C 7.554688 -10.066406 7.191406 -10.148438 6.703125 -10.171875 L 6.703125 -10.59375 C 6.953125 -10.570312 7.164062 -10.554688 7.34375 -10.546875 C 7.519531 -10.546875 7.691406 -10.539062 7.859375 -10.53125 C 8.035156 -10.53125 8.226562 -10.53125 8.4375 -10.53125 C 8.75 -10.53125 9.03125 -10.535156 9.28125 -10.546875 C 9.539062 -10.554688 9.78125 -10.570312 10 -10.59375 Z M 10 -10.59375 "/></g></g></g><g fill="#6b9076" fill-opacity="1"><g transform="translate(63.025266, 70.528901)"><g><path d="M 5.59375 -10.875 C 6.800781 -10.875 7.742188 -10.503906 8.421875 -9.765625 C 9.097656 -9.035156 9.4375 -7.898438 9.4375 -6.359375 L 2.171875 -6.359375 L 2.15625 -6.75 L 7.46875 -6.75 C 7.488281 -7.414062 7.429688 -8.03125 7.296875 -8.59375 C 7.160156 -9.164062 6.941406 -9.625 6.640625 -9.96875 C 6.347656 -10.3125 5.972656 -10.484375 5.515625 -10.484375 C 4.878906 -10.484375 4.316406 -10.164062 3.828125 -9.53125 C 3.347656 -8.90625 3.0625 -7.90625 2.96875 -6.53125 L 3.015625 -6.453125 C 2.992188 -6.242188 2.972656 -6.015625 2.953125 -5.765625 C 2.941406 -5.523438 2.9375 -5.28125 2.9375 -5.03125 C 2.9375 -4.101562 3.085938 -3.300781 3.390625 -2.625 C 3.691406 -1.957031 4.085938 -1.445312 4.578125 -1.09375 C 5.066406 -0.75 5.570312 -0.578125 6.09375 -0.578125 C 6.5 -0.578125 6.882812 -0.640625 7.25 -0.765625 C 7.625 -0.898438 7.96875 -1.117188 8.28125 -1.421875 C 8.601562 -1.722656 8.878906 -2.125 9.109375 -2.625 L 9.515625 -2.46875 C 9.367188 -2.007812 9.125 -1.566406 8.78125 -1.140625 C 8.4375 -0.722656 8.003906 -0.378906 7.484375 -0.109375 C 6.960938 0.148438 6.359375 0.28125 5.671875 0.28125 C 4.679688 0.28125 3.832031 0.0546875 3.125 -0.390625 C 2.425781 -0.835938 1.890625 -1.460938 1.515625 -2.265625 C 1.140625 -3.066406 0.953125 -3.988281 0.953125 -5.03125 C 0.953125 -6.238281 1.140625 -7.273438 1.515625 -8.140625 C 1.898438 -9.015625 2.441406 -9.6875 3.140625 -10.15625 C 3.835938 -10.632812 4.65625 -10.875 5.59375 -10.875 Z M 5.59375 -10.875 "/></g></g></g><g fill="#6b9076" fill-opacity="1"><g transform="translate(73.428861, 70.528901)"><g><path d="M 6.984375 -10.875 C 7.359375 -10.875 7.6875 -10.796875 7.96875 -10.640625 C 8.25 -10.492188 8.46875 -10.300781 8.625 -10.0625 C 8.78125 -9.820312 8.859375 -9.550781 8.859375 -9.25 C 8.859375 -8.90625 8.75 -8.601562 8.53125 -8.34375 C 8.320312 -8.082031 8.039062 -7.953125 7.6875 -7.953125 C 7.40625 -7.953125 7.148438 -8.046875 6.921875 -8.234375 C 6.703125 -8.421875 6.59375 -8.6875 6.59375 -9.03125 C 6.59375 -9.289062 6.664062 -9.507812 6.8125 -9.6875 C 6.957031 -9.875 7.117188 -10.023438 7.296875 -10.140625 C 7.203125 -10.273438 7.0625 -10.34375 6.875 -10.34375 C 6.445312 -10.34375 6.050781 -10.210938 5.6875 -9.953125 C 5.332031 -9.703125 5.03125 -9.378906 4.78125 -8.984375 C 4.539062 -8.585938 4.351562 -8.164062 4.21875 -7.71875 C 4.082031 -7.269531 4.015625 -6.859375 4.015625 -6.484375 L 4.015625 -2.125 C 4.015625 -1.445312 4.207031 -0.992188 4.59375 -0.765625 C 4.988281 -0.546875 5.519531 -0.4375 6.1875 -0.4375 L 6.1875 0 C 5.875 -0.0078125 5.425781 -0.0234375 4.84375 -0.046875 C 4.269531 -0.0664062 3.660156 -0.078125 3.015625 -0.078125 C 2.554688 -0.078125 2.097656 -0.0664062 1.640625 -0.046875 C 1.179688 -0.0234375 0.832031 -0.0078125 0.59375 0 L 0.59375 -0.4375 C 1.15625 -0.4375 1.554688 -0.535156 1.796875 -0.734375 C 2.035156 -0.941406 2.15625 -1.332031 2.15625 -1.90625 L 2.15625 -8.34375 C 2.15625 -8.96875 2.046875 -9.425781 1.828125 -9.71875 C 1.609375 -10.007812 1.195312 -10.15625 0.59375 -10.15625 L 0.59375 -10.59375 C 1.03125 -10.550781 1.457031 -10.53125 1.875 -10.53125 C 2.269531 -10.53125 2.648438 -10.550781 3.015625 -10.59375 C 3.378906 -10.644531 3.710938 -10.71875 4.015625 -10.8125 L 4.015625 -8.25 C 4.160156 -8.644531 4.375 -9.046875 4.65625 -9.453125 C 4.9375 -9.859375 5.273438 -10.195312 5.671875 -10.46875 C 6.066406 -10.738281 6.503906 -10.875 6.984375 -10.875 Z M 6.984375 -10.875 "/></g></g></g><g fill="#6b9076" fill-opacity="1"><g transform="translate(82.146309, 70.528901)"><g/></g></g><g fill="#6b9076" fill-opacity="1"><g transform="translate(86.566486, 70.528901)"><g><path d="M 13.09375 -14.5625 L 13.09375 -14.140625 C 12.832031 -14.085938 12.554688 -13.929688 12.265625 -13.671875 C 11.972656 -13.410156 11.707031 -12.972656 11.46875 -12.359375 L 6.640625 0.109375 C 6.609375 0.109375 6.578125 0.109375 6.546875 0.109375 C 6.523438 0.109375 6.503906 0.109375 6.484375 0.109375 C 6.453125 0.109375 6.421875 0.109375 6.390625 0.109375 C 6.367188 0.109375 6.34375 0.109375 6.3125 0.109375 L 1.296875 -12.828125 C 1.085938 -13.347656 0.851562 -13.691406 0.59375 -13.859375 C 0.332031 -14.035156 0.09375 -14.128906 -0.125 -14.140625 L -0.125 -14.5625 C 0.144531 -14.539062 0.484375 -14.523438 0.890625 -14.515625 C 1.296875 -14.503906 1.691406 -14.5 2.078125 -14.5 C 2.609375 -14.5 3.109375 -14.503906 3.578125 -14.515625 C 4.046875 -14.523438 4.421875 -14.539062 4.703125 -14.5625 L 4.703125 -14.140625 C 4.242188 -14.128906 3.894531 -14.078125 3.65625 -13.984375 C 3.414062 -13.890625 3.285156 -13.722656 3.265625 -13.484375 C 3.242188 -13.242188 3.320312 -12.890625 3.5 -12.421875 L 7.3125 -2.28125 L 6.984375 -1.9375 L 10.5625 -11.234375 C 10.851562 -11.972656 10.988281 -12.550781 10.96875 -12.96875 C 10.957031 -13.382812 10.800781 -13.679688 10.5 -13.859375 C 10.207031 -14.035156 9.769531 -14.128906 9.1875 -14.140625 L 9.1875 -14.5625 C 9.582031 -14.539062 9.984375 -14.523438 10.390625 -14.515625 C 10.804688 -14.503906 11.195312 -14.5 11.5625 -14.5 C 11.914062 -14.5 12.207031 -14.503906 12.4375 -14.515625 C 12.675781 -14.523438 12.894531 -14.539062 13.09375 -14.5625 Z M 13.09375 -14.5625 "/></g></g></g><g fill="#6b9076" fill-opacity="1"><g transform="translate(98.26482, 70.528901)"><g><path d="M 3.515625 0.140625 C 2.953125 0.140625 2.460938 0.0351562 2.046875 -0.171875 C 1.640625 -0.390625 1.328125 -0.6875 1.109375 -1.0625 C 0.898438 -1.445312 0.796875 -1.894531 0.796875 -2.40625 C 0.796875 -3.007812 0.9375 -3.503906 1.21875 -3.890625 C 1.5 -4.273438 1.859375 -4.582031 2.296875 -4.8125 C 2.742188 -5.039062 3.207031 -5.234375 3.6875 -5.390625 C 4.175781 -5.554688 4.640625 -5.707031 5.078125 -5.84375 C 5.515625 -5.988281 5.875 -6.15625 6.15625 -6.34375 C 6.4375 -6.539062 6.578125 -6.796875 6.578125 -7.109375 L 6.578125 -8.390625 C 6.578125 -8.960938 6.488281 -9.398438 6.3125 -9.703125 C 6.144531 -10.003906 5.914062 -10.207031 5.625 -10.3125 C 5.34375 -10.414062 5.023438 -10.46875 4.671875 -10.46875 C 4.328125 -10.46875 3.957031 -10.414062 3.5625 -10.3125 C 3.175781 -10.21875 2.863281 -10.019531 2.625 -9.71875 C 2.882812 -9.664062 3.109375 -9.53125 3.296875 -9.3125 C 3.492188 -9.09375 3.59375 -8.8125 3.59375 -8.46875 C 3.59375 -8.125 3.484375 -7.851562 3.265625 -7.65625 C 3.046875 -7.457031 2.765625 -7.359375 2.421875 -7.359375 C 2.023438 -7.359375 1.734375 -7.484375 1.546875 -7.734375 C 1.367188 -7.992188 1.28125 -8.28125 1.28125 -8.59375 C 1.28125 -8.945312 1.367188 -9.234375 1.546875 -9.453125 C 1.722656 -9.671875 1.945312 -9.878906 2.21875 -10.078125 C 2.53125 -10.296875 2.9375 -10.484375 3.4375 -10.640625 C 3.9375 -10.796875 4.503906 -10.875 5.140625 -10.875 C 5.703125 -10.875 6.179688 -10.804688 6.578125 -10.671875 C 6.972656 -10.546875 7.300781 -10.359375 7.5625 -10.109375 C 7.925781 -9.785156 8.160156 -9.382812 8.265625 -8.90625 C 8.378906 -8.4375 8.4375 -7.875 8.4375 -7.21875 L 8.4375 -1.5 C 8.4375 -1.15625 8.484375 -0.90625 8.578125 -0.75 C 8.679688 -0.601562 8.84375 -0.53125 9.0625 -0.53125 C 9.21875 -0.53125 9.363281 -0.5625 9.5 -0.625 C 9.632812 -0.695312 9.800781 -0.8125 10 -0.96875 L 10.21875 -0.609375 C 9.925781 -0.390625 9.648438 -0.207031 9.390625 -0.0625 C 9.128906 0.0703125 8.78125 0.140625 8.34375 0.140625 C 7.945312 0.140625 7.617188 0.0703125 7.359375 -0.0625 C 7.097656 -0.195312 6.898438 -0.394531 6.765625 -0.65625 C 6.640625 -0.925781 6.578125 -1.269531 6.578125 -1.6875 C 6.210938 -1.070312 5.769531 -0.613281 5.25 -0.3125 C 4.738281 -0.0078125 4.160156 0.140625 3.515625 0.140625 Z M 4.25 -0.671875 C 4.707031 -0.671875 5.128906 -0.800781 5.515625 -1.0625 C 5.910156 -1.320312 6.265625 -1.710938 6.578125 -2.234375 L 6.578125 -6.265625 C 6.410156 -6.035156 6.171875 -5.84375 5.859375 -5.6875 C 5.546875 -5.53125 5.203125 -5.367188 4.828125 -5.203125 C 4.460938 -5.046875 4.109375 -4.863281 3.765625 -4.65625 C 3.429688 -4.445312 3.15625 -4.171875 2.9375 -3.828125 C 2.71875 -3.484375 2.609375 -3.035156 2.609375 -2.484375 C 2.609375 -1.941406 2.753906 -1.503906 3.046875 -1.171875 C 3.347656 -0.835938 3.75 -0.671875 4.25 -0.671875 Z M 4.25 -0.671875 "/></g></g></g><g fill="#6b9076" fill-opacity="1"><g transform="translate(108.503933, 70.528901)"><g><path d="M 3.859375 -16.125 L 3.859375 -1.90625 C 3.859375 -1.332031 3.976562 -0.941406 4.21875 -0.734375 C 4.457031 -0.535156 4.859375 -0.4375 5.421875 -0.4375 L 5.421875 0 C 5.191406 -0.0078125 4.835938 -0.0234375 4.359375 -0.046875 C 3.890625 -0.0664062 3.414062 -0.078125 2.9375 -0.078125 C 2.46875 -0.078125 1.992188 -0.0664062 1.515625 -0.046875 C 1.035156 -0.0234375 0.679688 -0.0078125 0.453125 0 L 0.453125 -0.4375 C 1.015625 -0.4375 1.414062 -0.535156 1.65625 -0.734375 C 1.894531 -0.941406 2.015625 -1.332031 2.015625 -1.90625 L 2.015625 -13.65625 C 2.015625 -14.269531 1.90625 -14.722656 1.6875 -15.015625 C 1.46875 -15.316406 1.054688 -15.46875 0.453125 -15.46875 L 0.453125 -15.890625 C 0.890625 -15.847656 1.316406 -15.828125 1.734375 -15.828125 C 2.128906 -15.828125 2.503906 -15.851562 2.859375 -15.90625 C 3.222656 -15.957031 3.554688 -16.03125 3.859375 -16.125 Z M 3.859375 -16.125 "/></g></g></g><g fill="#6b9076" fill-opacity="1"><g transform="translate(114.384224, 70.528901)"><g><path d="M 3.859375 -16.125 L 3.859375 -1.90625 C 3.859375 -1.332031 3.976562 -0.941406 4.21875 -0.734375 C 4.457031 -0.535156 4.859375 -0.4375 5.421875 -0.4375 L 5.421875 0 C 5.191406 -0.0078125 4.835938 -0.0234375 4.359375 -0.046875 C 3.890625 -0.0664062 3.414062 -0.078125 2.9375 -0.078125 C 2.46875 -0.078125 1.992188 -0.0664062 1.515625 -0.046875 C 1.035156 -0.0234375 0.679688 -0.0078125 0.453125 0 L 0.453125 -0.4375 C 1.015625 -0.4375 1.414062 -0.535156 1.65625 -0.734375 C 1.894531 -0.941406 2.015625 -1.332031 2.015625 -1.90625 L 2.015625 -13.65625 C 2.015625 -14.269531 1.90625 -14.722656 1.6875 -15.015625 C 1.46875 -15.316406 1.054688 -15.46875 0.453125 -15.46875 L 0.453125 -15.890625 C 0.890625 -15.847656 1.316406 -15.828125 1.734375 -15.828125 C 2.128906 -15.828125 2.503906 -15.851562 2.859375 -15.90625 C 3.222656 -15.957031 3.554688 -16.03125 3.859375 -16.125 Z M 3.859375 -16.125 "/></g></g></g><g fill="#6b9076" fill-opacity="1"><g transform="translate(120.058812, 70.528901)"><g><path d="M 5.59375 -10.875 C 6.800781 -10.875 7.742188 -10.503906 8.421875 -9.765625 C 9.097656 -9.035156 9.4375 -7.898438 9.4375 -6.359375 L 2.171875 -6.359375 L 2.15625 -6.75 L 7.46875 -6.75 C 7.488281 -7.414062 7.429688 -8.03125 7.296875 -8.59375 C 7.160156 -9.164062 6.941406 -9.625 6.640625 -9.96875 C 6.347656 -10.3125 5.972656 -10.484375 5.515625 -10.484375 C 4.878906 -10.484375 4.316406 -10.164062 3.828125 -9.53125 C 3.347656 -8.90625 3.0625 -7.90625 2.96875 -6.53125 L 3.015625 -6.453125 C 2.992188 -6.242188 2.972656 -6.015625 2.953125 -5.765625 C 2.941406 -5.523438 2.9375 -5.28125 2.9375 -5.03125 C 2.9375 -4.101562 3.085938 -3.300781 3.390625 -2.625 C 3.691406 -1.957031 4.085938 -1.445312 4.578125 -1.09375 C 5.066406 -0.75 5.570312 -0.578125 6.09375 -0.578125 C 6.5 -0.578125 6.882812 -0.640625 7.25 -0.765625 C 7.625 -0.898438 7.96875 -1.117188 8.28125 -1.421875 C 8.601562 -1.722656 8.878906 -2.125 9.109375 -2.625 L 9.515625 -2.46875 C 9.367188 -2.007812 9.125 -1.566406 8.78125 -1.140625 C 8.4375 -0.722656 8.003906 -0.378906 7.484375 -0.109375 C 6.960938 0.148438 6.359375 0.28125 5.671875 0.28125 C 4.679688 0.28125 3.832031 0.0546875 3.125 -0.390625 C 2.425781 -0.835938 1.890625 -1.460938 1.515625 -2.265625 C 1.140625 -3.066406 0.953125 -3.988281 0.953125 -5.03125 C 0.953125 -6.238281 1.140625 -7.273438 1.515625 -8.140625 C 1.898438 -9.015625 2.441406 -9.6875 3.140625 -10.15625 C 3.835938 -10.632812 4.65625 -10.875 5.59375 -10.875 Z M 5.59375 -10.875 "/></g></g></g><g fill="#6b9076" fill-opacity="1"><g transform="translate(130.256704, 70.528901)"><g><path d="M 10.15625 -10.59375 L 10.15625 -10.171875 C 9.894531 -10.148438 9.65625 -10.035156 9.4375 -9.828125 C 9.21875 -9.617188 9.015625 -9.253906 8.828125 -8.734375 L 5.453125 0.109375 L 5.09375 0.109375 L 1.3125 -9 C 1.050781 -9.539062 0.796875 -9.867188 0.546875 -9.984375 C 0.296875 -10.097656 0.0859375 -10.15625 -0.078125 -10.15625 L -0.078125 -10.59375 C 0.222656 -10.550781 0.535156 -10.519531 0.859375 -10.5 C 1.191406 -10.476562 1.550781 -10.46875 1.9375 -10.46875 C 2.351562 -10.46875 2.796875 -10.476562 3.265625 -10.5 C 3.742188 -10.53125 4.191406 -10.5625 4.609375 -10.59375 L 4.609375 -10.15625 C 4.265625 -10.15625 3.957031 -10.128906 3.6875 -10.078125 C 3.425781 -10.035156 3.257812 -9.894531 3.1875 -9.65625 C 3.113281 -9.414062 3.195312 -9.007812 3.4375 -8.4375 L 5.96875 -2.15625 L 5.84375 -2.125 L 8.1875 -8.25 C 8.363281 -8.695312 8.429688 -9.050781 8.390625 -9.3125 C 8.359375 -9.582031 8.21875 -9.785156 7.96875 -9.921875 C 7.726562 -10.066406 7.363281 -10.148438 6.875 -10.171875 L 6.875 -10.59375 C 7.113281 -10.570312 7.320312 -10.554688 7.5 -10.546875 C 7.675781 -10.546875 7.847656 -10.539062 8.015625 -10.53125 C 8.191406 -10.53125 8.382812 -10.53125 8.59375 -10.53125 C 8.90625 -10.53125 9.1875 -10.535156 9.4375 -10.546875 C 9.695312 -10.554688 9.9375 -10.570312 10.15625 -10.59375 Z M 5.453125 0.109375 L 4.75 1.890625 C 4.613281 2.234375 4.472656 2.519531 4.328125 2.75 C 4.179688 2.988281 4.023438 3.179688 3.859375 3.328125 C 3.640625 3.535156 3.378906 3.675781 3.078125 3.75 C 2.773438 3.820312 2.503906 3.859375 2.265625 3.859375 C 2.003906 3.859375 1.765625 3.8125 1.546875 3.71875 C 1.335938 3.625 1.171875 3.484375 1.046875 3.296875 C 0.921875 3.109375 0.859375 2.882812 0.859375 2.625 C 0.859375 2.300781 0.953125 2.039062 1.140625 1.84375 C 1.335938 1.644531 1.609375 1.546875 1.953125 1.546875 C 2.242188 1.546875 2.488281 1.625 2.6875 1.78125 C 2.894531 1.945312 3 2.191406 3 2.515625 C 3 2.742188 2.941406 2.929688 2.828125 3.078125 C 2.722656 3.234375 2.597656 3.351562 2.453125 3.4375 C 2.472656 3.445312 2.492188 3.453125 2.515625 3.453125 C 2.535156 3.453125 2.550781 3.453125 2.5625 3.453125 C 2.9375 3.453125 3.265625 3.320312 3.546875 3.0625 C 3.835938 2.8125 4.09375 2.40625 4.3125 1.84375 L 5.0625 -0.0625 Z M 5.453125 0.109375 "/></g></g></g><g fill="#6b9076" fill-opacity="1"><g transform="translate(167.896639, 70.528901)"><g><path d="M 6.640625 -14.65625 L 11.65625 -1.734375 C 11.863281 -1.210938 12.097656 -0.863281 12.359375 -0.6875 C 12.617188 -0.519531 12.859375 -0.425781 13.078125 -0.40625 L 13.078125 0 C 12.804688 -0.03125 12.46875 -0.046875 12.0625 -0.046875 C 11.664062 -0.0546875 11.269531 -0.0625 10.875 -0.0625 C 10.34375 -0.0625 9.84375 -0.0546875 9.375 -0.046875 C 8.90625 -0.046875 8.53125 -0.03125 8.25 0 L 8.25 -0.40625 C 8.945312 -0.4375 9.390625 -0.554688 9.578125 -0.765625 C 9.773438 -0.984375 9.734375 -1.441406 9.453125 -2.140625 L 5.640625 -12.359375 L 5.96875 -12.625 L 2.390625 -3.328125 C 2.171875 -2.785156 2.039062 -2.320312 2 -1.9375 C 1.957031 -1.5625 1.992188 -1.265625 2.109375 -1.046875 C 2.222656 -0.828125 2.421875 -0.671875 2.703125 -0.578125 C 2.984375 -0.484375 3.335938 -0.425781 3.765625 -0.40625 L 3.765625 0 C 3.378906 -0.03125 2.976562 -0.046875 2.5625 -0.046875 C 2.144531 -0.0546875 1.753906 -0.0625 1.390625 -0.0625 C 1.054688 -0.0625 0.769531 -0.0546875 0.53125 -0.046875 C 0.289062 -0.046875 0.0664062 -0.03125 -0.140625 0 L -0.140625 -0.40625 C 0.128906 -0.476562 0.40625 -0.640625 0.6875 -0.890625 C 0.976562 -1.148438 1.242188 -1.585938 1.484375 -2.203125 L 6.3125 -14.65625 C 6.363281 -14.65625 6.414062 -14.65625 6.46875 -14.65625 C 6.53125 -14.65625 6.585938 -14.65625 6.640625 -14.65625 Z M 9.15625 -5.921875 L 9.15625 -5.515625 L 3.015625 -5.515625 L 3.234375 -5.921875 Z M 9.15625 -5.921875 "/></g></g></g><g fill="#6b9076" fill-opacity="1"><g transform="translate(180.849739, 70.528901)"><g><path d="M 6.984375 -10.875 C 7.359375 -10.875 7.6875 -10.796875 7.96875 -10.640625 C 8.25 -10.492188 8.46875 -10.300781 8.625 -10.0625 C 8.78125 -9.820312 8.859375 -9.550781 8.859375 -9.25 C 8.859375 -8.90625 8.75 -8.601562 8.53125 -8.34375 C 8.320312 -8.082031 8.039062 -7.953125 7.6875 -7.953125 C 7.40625 -7.953125 7.148438 -8.046875 6.921875 -8.234375 C 6.703125 -8.421875 6.59375 -8.6875 6.59375 -9.03125 C 6.59375 -9.289062 6.664062 -9.507812 6.8125 -9.6875 C 6.957031 -9.875 7.117188 -10.023438 7.296875 -10.140625 C 7.203125 -10.273438 7.0625 -10.34375 6.875 -10.34375 C 6.445312 -10.34375 6.050781 -10.210938 5.6875 -9.953125 C 5.332031 -9.703125 5.03125 -9.378906 4.78125 -8.984375 C 4.539062 -8.585938 4.351562 -8.164062 4.21875 -7.71875 C 4.082031 -7.269531 4.015625 -6.859375 4.015625 -6.484375 L 4.015625 -2.125 C 4.015625 -1.445312 4.207031 -0.992188 4.59375 -0.765625 C 4.988281 -0.546875 5.519531 -0.4375 6.1875 -0.4375 L 6.1875 0 C 5.875 -0.0078125 5.425781 -0.0234375 4.84375 -0.046875 C 4.269531 -0.0664062 3.660156 -0.078125 3.015625 -0.078125 C 2.554688 -0.078125 2.097656 -0.0664062 1.640625 -0.046875 C 1.179688 -0.0234375 0.832031 -0.0078125 0.59375 0 L 0.59375 -0.4375 C 1.15625 -0.4375 1.554688 -0.535156 1.796875 -0.734375 C 2.035156 -0.941406 2.15625 -1.332031 2.15625 -1.90625 L 2.15625 -8.34375 C 2.15625 -8.96875 2.046875 -9.425781 1.828125 -9.71875 C 1.609375 -10.007812 1.195312 -10.15625 0.59375 -10.15625 L 0.59375 -10.59375 C 1.03125 -10.550781 1.457031 -10.53125 1.875 -10.53125 C 2.269531 -10.53125 2.648438 -10.550781 3.015625 -10.59375 C 3.378906 -10.644531 3.710938 -10.71875 4.015625 -10.8125 L 4.015625 -8.25 C 4.160156 -8.644531 4.375 -9.046875 4.65625 -9.453125 C 4.9375 -9.859375 5.273438 -10.195312 5.671875 -10.46875 C 6.066406 -10.738281 6.503906 -10.875 6.984375 -10.875 Z M 6.984375 -10.875 "/></g></g></g><g fill="#6b9076" fill-opacity="1"><g transform="translate(189.587757, 70.528901)"><g><path d="M 3.828125 -16.125 L 3.828125 -1.90625 C 3.828125 -1.332031 3.925781 -0.941406 4.125 -0.734375 C 4.332031 -0.535156 4.6875 -0.4375 5.1875 -0.4375 L 5.1875 0 C 4.96875 -0.0078125 4.640625 -0.0234375 4.203125 -0.046875 C 3.773438 -0.0664062 3.34375 -0.078125 2.90625 -0.078125 C 2.4375 -0.078125 1.960938 -0.0664062 1.484375 -0.046875 C 1.003906 -0.0234375 0.644531 -0.0078125 0.40625 0 L 0.40625 -0.4375 C 0.96875 -0.4375 1.367188 -0.535156 1.609375 -0.734375 C 1.847656 -0.941406 1.96875 -1.332031 1.96875 -1.90625 L 1.96875 -13.65625 C 1.96875 -14.269531 1.859375 -14.722656 1.640625 -15.015625 C 1.421875 -15.316406 1.007812 -15.46875 0.40625 -15.46875 L 0.40625 -15.890625 C 0.84375 -15.847656 1.269531 -15.828125 1.6875 -15.828125 C 2.082031 -15.828125 2.460938 -15.851562 2.828125 -15.90625 C 3.191406 -15.957031 3.523438 -16.03125 3.828125 -16.125 Z M 10.359375 -10.59375 L 10.359375 -10.171875 C 10.015625 -10.148438 9.691406 -10.0625 9.390625 -9.90625 C 9.085938 -9.75 8.796875 -9.519531 8.515625 -9.21875 L 5.609375 -6.171875 L 5.90625 -6.75 L 9.71875 -1.5 C 9.957031 -1.1875 10.179688 -0.941406 10.390625 -0.765625 C 10.609375 -0.585938 10.867188 -0.476562 11.171875 -0.4375 L 11.171875 0 C 11.015625 -0.0078125 10.773438 -0.0234375 10.453125 -0.046875 C 10.128906 -0.0664062 9.8125 -0.078125 9.5 -0.078125 C 9.070312 -0.078125 8.640625 -0.0664062 8.203125 -0.046875 C 7.765625 -0.0234375 7.4375 -0.0078125 7.21875 0 L 7.21875 -0.4375 C 7.488281 -0.4375 7.675781 -0.503906 7.78125 -0.640625 C 7.894531 -0.773438 7.878906 -0.9375 7.734375 -1.125 L 5.359375 -4.578125 C 5.097656 -4.953125 4.863281 -5.191406 4.65625 -5.296875 C 4.445312 -5.410156 4.144531 -5.472656 3.75 -5.484375 L 3.75 -5.90625 C 4.1875 -5.957031 4.539062 -6.046875 4.8125 -6.171875 C 5.082031 -6.304688 5.34375 -6.503906 5.59375 -6.765625 L 7.109375 -8.34375 C 7.546875 -8.800781 7.765625 -9.160156 7.765625 -9.421875 C 7.765625 -9.691406 7.625 -9.882812 7.34375 -10 C 7.0625 -10.113281 6.695312 -10.171875 6.25 -10.171875 L 6.25 -10.59375 C 6.601562 -10.570312 7.003906 -10.550781 7.453125 -10.53125 C 7.898438 -10.507812 8.273438 -10.5 8.578125 -10.5 C 8.804688 -10.5 9.03125 -10.503906 9.25 -10.515625 C 9.46875 -10.523438 9.671875 -10.535156 9.859375 -10.546875 C 10.054688 -10.554688 10.222656 -10.570312 10.359375 -10.59375 Z M 10.359375 -10.59375 "/></g></g></g><g fill="#6b9076" fill-opacity="1"><g transform="translate(200.690307, 70.528901)"><g><path d="M 3.515625 0.140625 C 2.953125 0.140625 2.460938 0.0351562 2.046875 -0.171875 C 1.640625 -0.390625 1.328125 -0.6875 1.109375 -1.0625 C 0.898438 -1.445312 0.796875 -1.894531 0.796875 -2.40625 C 0.796875 -3.007812 0.9375 -3.503906 1.21875 -3.890625 C 1.5 -4.273438 1.859375 -4.582031 2.296875 -4.8125 C 2.742188 -5.039062 3.207031 -5.234375 3.6875 -5.390625 C 4.175781 -5.554688 4.640625 -5.707031 5.078125 -5.84375 C 5.515625 -5.988281 5.875 -6.15625 6.15625 -6.34375 C 6.4375 -6.539062 6.578125 -6.796875 6.578125 -7.109375 L 6.578125 -8.390625 C 6.578125 -8.960938 6.488281 -9.398438 6.3125 -9.703125 C 6.144531 -10.003906 5.914062 -10.207031 5.625 -10.3125 C 5.34375 -10.414062 5.023438 -10.46875 4.671875 -10.46875 C 4.328125 -10.46875 3.957031 -10.414062 3.5625 -10.3125 C 3.175781 -10.21875 2.863281 -10.019531 2.625 -9.71875 C 2.882812 -9.664062 3.109375 -9.53125 3.296875 -9.3125 C 3.492188 -9.09375 3.59375 -8.8125 3.59375 -8.46875 C 3.59375 -8.125 3.484375 -7.851562 3.265625 -7.65625 C 3.046875 -7.457031 2.765625 -7.359375 2.421875 -7.359375 C 2.023438 -7.359375 1.734375 -7.484375 1.546875 -7.734375 C 1.367188 -7.992188 1.28125 -8.28125 1.28125 -8.59375 C 1.28125 -8.945312 1.367188 -9.234375 1.546875 -9.453125 C 1.722656 -9.671875 1.945312 -9.878906 2.21875 -10.078125 C 2.53125 -10.296875 2.9375 -10.484375 3.4375 -10.640625 C 3.9375 -10.796875 4.503906 -10.875 5.140625 -10.875 C 5.703125 -10.875 6.179688 -10.804688 6.578125 -10.671875 C 6.972656 -10.546875 7.300781 -10.359375 7.5625 -10.109375 C 7.925781 -9.785156 8.160156 -9.382812 8.265625 -8.90625 C 8.378906 -8.4375 8.4375 -7.875 8.4375 -7.21875 L 8.4375 -1.5 C 8.4375 -1.15625 8.484375 -0.90625 8.578125 -0.75 C 8.679688 -0.601562 8.84375 -0.53125 9.0625 -0.53125 C 9.21875 -0.53125 9.363281 -0.5625 9.5 -0.625 C 9.632812 -0.695312 9.800781 -0.8125 10 -0.96875 L 10.21875 -0.609375 C 9.925781 -0.390625 9.648438 -0.207031 9.390625 -0.0625 C 9.128906 0.0703125 8.78125 0.140625 8.34375 0.140625 C 7.945312 0.140625 7.617188 0.0703125 7.359375 -0.0625 C 7.097656 -0.195312 6.898438 -0.394531 6.765625 -0.65625 C 6.640625 -0.925781 6.578125 -1.269531 6.578125 -1.6875 C 6.210938 -1.070312 5.769531 -0.613281 5.25 -0.3125 C 4.738281 -0.0078125 4.160156 0.140625 3.515625 0.140625 Z M 4.25 -0.671875 C 4.707031 -0.671875 5.128906 -0.800781 5.515625 -1.0625 C 5.910156 -1.320312 6.265625 -1.710938 6.578125 -2.234375 L 6.578125 -6.265625 C 6.410156 -6.035156 6.171875 -5.84375 5.859375 -5.6875 C 5.546875 -5.53125 5.203125 -5.367188 4.828125 -5.203125 C 4.460938 -5.046875 4.109375 -4.863281 3.765625 -4.65625 C 3.429688 -4.445312 3.15625 -4.171875 2.9375 -3.828125 C 2.71875 -3.484375 2.609375 -3.035156 2.609375 -2.484375 C 2.609375 -1.941406 2.753906 -1.503906 3.046875 -1.171875 C 3.347656 -0.835938 3.75 -0.671875 4.25 -0.671875 Z M 4.25 -0.671875 "/></g></g></g><g fill="#6b9076" fill-opacity="1"><g transform="translate(210.92942, 70.528901)"><g><path d="M 7.5 -10.875 C 8.019531 -10.875 8.453125 -10.804688 8.796875 -10.671875 C 9.148438 -10.535156 9.445312 -10.34375 9.6875 -10.09375 C 9.945312 -9.820312 10.128906 -9.476562 10.234375 -9.0625 C 10.347656 -8.65625 10.40625 -8.101562 10.40625 -7.40625 L 10.40625 -1.90625 C 10.40625 -1.332031 10.523438 -0.941406 10.765625 -0.734375 C 11.003906 -0.535156 11.40625 -0.4375 11.96875 -0.4375 L 11.96875 0 C 11.738281 -0.0078125 11.378906 -0.0234375 10.890625 -0.046875 C 10.410156 -0.0664062 9.945312 -0.078125 9.5 -0.078125 C 9.050781 -0.078125 8.609375 -0.0664062 8.171875 -0.046875 C 7.742188 -0.0234375 7.421875 -0.0078125 7.203125 0 L 7.203125 -0.4375 C 7.691406 -0.4375 8.035156 -0.535156 8.234375 -0.734375 C 8.441406 -0.941406 8.546875 -1.332031 8.546875 -1.90625 L 8.546875 -7.859375 C 8.546875 -8.285156 8.507812 -8.675781 8.4375 -9.03125 C 8.375 -9.382812 8.222656 -9.671875 7.984375 -9.890625 C 7.742188 -10.109375 7.378906 -10.21875 6.890625 -10.21875 C 6.316406 -10.21875 5.8125 -10.050781 5.375 -9.71875 C 4.945312 -9.394531 4.613281 -8.945312 4.375 -8.375 C 4.132812 -7.8125 4.015625 -7.179688 4.015625 -6.484375 L 4.015625 -1.90625 C 4.015625 -1.332031 4.113281 -0.941406 4.3125 -0.734375 C 4.519531 -0.535156 4.867188 -0.4375 5.359375 -0.4375 L 5.359375 0 C 5.140625 -0.0078125 4.816406 -0.0234375 4.390625 -0.046875 C 3.960938 -0.0664062 3.519531 -0.078125 3.0625 -0.078125 C 2.613281 -0.078125 2.148438 -0.0664062 1.671875 -0.046875 C 1.191406 -0.0234375 0.832031 -0.0078125 0.59375 0 L 0.59375 -0.4375 C 1.15625 -0.4375 1.554688 -0.535156 1.796875 -0.734375 C 2.035156 -0.941406 2.15625 -1.332031 2.15625 -1.90625 L 2.15625 -8.34375 C 2.15625 -8.96875 2.046875 -9.425781 1.828125 -9.71875 C 1.609375 -10.007812 1.195312 -10.15625 0.59375 -10.15625 L 0.59375 -10.59375 C 1.03125 -10.550781 1.457031 -10.53125 1.875 -10.53125 C 2.269531 -10.53125 2.648438 -10.550781 3.015625 -10.59375 C 3.378906 -10.644531 3.710938 -10.71875 4.015625 -10.8125 L 4.015625 -8.390625 C 4.367188 -9.316406 4.863281 -9.960938 5.5 -10.328125 C 6.132812 -10.691406 6.800781 -10.875 7.5 -10.875 Z M 7.5 -10.875 "/></g></g></g><g fill="#6b9076" fill-opacity="1"><g transform="translate(223.204019, 70.528901)"><g><path d="M 4.28125 -10.875 C 4.820312 -10.875 5.285156 -10.785156 5.671875 -10.609375 C 6.054688 -10.429688 6.335938 -10.265625 6.515625 -10.109375 C 6.972656 -9.742188 7.25 -9.992188 7.34375 -10.859375 L 7.8125 -10.859375 C 7.78125 -10.472656 7.757812 -10.015625 7.75 -9.484375 C 7.738281 -8.960938 7.734375 -8.253906 7.734375 -7.359375 L 7.265625 -7.359375 C 7.179688 -7.867188 7.035156 -8.363281 6.828125 -8.84375 C 6.628906 -9.320312 6.335938 -9.710938 5.953125 -10.015625 C 5.578125 -10.328125 5.082031 -10.484375 4.46875 -10.484375 C 3.988281 -10.484375 3.585938 -10.347656 3.265625 -10.078125 C 2.941406 -9.816406 2.78125 -9.425781 2.78125 -8.90625 C 2.78125 -8.488281 2.898438 -8.132812 3.140625 -7.84375 C 3.390625 -7.550781 3.710938 -7.273438 4.109375 -7.015625 C 4.503906 -6.765625 4.9375 -6.488281 5.40625 -6.1875 C 5.925781 -5.863281 6.398438 -5.53125 6.828125 -5.1875 C 7.253906 -4.84375 7.59375 -4.460938 7.84375 -4.046875 C 8.09375 -3.640625 8.21875 -3.15625 8.21875 -2.59375 C 8.21875 -1.957031 8.050781 -1.425781 7.71875 -1 C 7.394531 -0.582031 6.96875 -0.265625 6.4375 -0.046875 C 5.914062 0.171875 5.335938 0.28125 4.703125 0.28125 C 4.398438 0.28125 4.113281 0.253906 3.84375 0.203125 C 3.582031 0.160156 3.328125 0.09375 3.078125 0 C 2.941406 -0.0703125 2.800781 -0.15625 2.65625 -0.25 C 2.519531 -0.34375 2.378906 -0.445312 2.234375 -0.5625 C 2.097656 -0.664062 1.972656 -0.660156 1.859375 -0.546875 C 1.753906 -0.429688 1.675781 -0.203125 1.625 0.140625 L 1.15625 0.140625 C 1.175781 -0.296875 1.191406 -0.828125 1.203125 -1.453125 C 1.222656 -2.085938 1.234375 -2.925781 1.234375 -3.96875 L 1.703125 -3.96875 C 1.796875 -3.195312 1.929688 -2.523438 2.109375 -1.953125 C 2.296875 -1.378906 2.578125 -0.929688 2.953125 -0.609375 C 3.335938 -0.285156 3.875 -0.125 4.5625 -0.125 C 4.832031 -0.125 5.109375 -0.1875 5.390625 -0.3125 C 5.671875 -0.4375 5.90625 -0.640625 6.09375 -0.921875 C 6.289062 -1.210938 6.390625 -1.597656 6.390625 -2.078125 C 6.390625 -2.679688 6.171875 -3.175781 5.734375 -3.5625 C 5.296875 -3.945312 4.742188 -4.347656 4.078125 -4.765625 C 3.578125 -5.085938 3.109375 -5.40625 2.671875 -5.71875 C 2.242188 -6.03125 1.894531 -6.382812 1.625 -6.78125 C 1.363281 -7.175781 1.234375 -7.65625 1.234375 -8.21875 C 1.234375 -8.84375 1.375 -9.347656 1.65625 -9.734375 C 1.9375 -10.128906 2.304688 -10.414062 2.765625 -10.59375 C 3.234375 -10.78125 3.738281 -10.875 4.28125 -10.875 Z M 4.28125 -10.875 "/></g></g></g><g fill="#6b9076" fill-opacity="1"><g transform="translate(232.39455, 70.528901)"><g><path d="M 3.515625 0.140625 C 2.953125 0.140625 2.460938 0.0351562 2.046875 -0.171875 C 1.640625 -0.390625 1.328125 -0.6875 1.109375 -1.0625 C 0.898438 -1.445312 0.796875 -1.894531 0.796875 -2.40625 C 0.796875 -3.007812 0.9375 -3.503906 1.21875 -3.890625 C 1.5 -4.273438 1.859375 -4.582031 2.296875 -4.8125 C 2.742188 -5.039062 3.207031 -5.234375 3.6875 -5.390625 C 4.175781 -5.554688 4.640625 -5.707031 5.078125 -5.84375 C 5.515625 -5.988281 5.875 -6.15625 6.15625 -6.34375 C 6.4375 -6.539062 6.578125 -6.796875 6.578125 -7.109375 L 6.578125 -8.390625 C 6.578125 -8.960938 6.488281 -9.398438 6.3125 -9.703125 C 6.144531 -10.003906 5.914062 -10.207031 5.625 -10.3125 C 5.34375 -10.414062 5.023438 -10.46875 4.671875 -10.46875 C 4.328125 -10.46875 3.957031 -10.414062 3.5625 -10.3125 C 3.175781 -10.21875 2.863281 -10.019531 2.625 -9.71875 C 2.882812 -9.664062 3.109375 -9.53125 3.296875 -9.3125 C 3.492188 -9.09375 3.59375 -8.8125 3.59375 -8.46875 C 3.59375 -8.125 3.484375 -7.851562 3.265625 -7.65625 C 3.046875 -7.457031 2.765625 -7.359375 2.421875 -7.359375 C 2.023438 -7.359375 1.734375 -7.484375 1.546875 -7.734375 C 1.367188 -7.992188 1.28125 -8.28125 1.28125 -8.59375 C 1.28125 -8.945312 1.367188 -9.234375 1.546875 -9.453125 C 1.722656 -9.671875 1.945312 -9.878906 2.21875 -10.078125 C 2.53125 -10.296875 2.9375 -10.484375 3.4375 -10.640625 C 3.9375 -10.796875 4.503906 -10.875 5.140625 -10.875 C 5.703125 -10.875 6.179688 -10.804688 6.578125 -10.671875 C 6.972656 -10.546875 7.300781 -10.359375 7.5625 -10.109375 C 7.925781 -9.785156 8.160156 -9.382812 8.265625 -8.90625 C 8.378906 -8.4375 8.4375 -7.875 8.4375 -7.21875 L 8.4375 -1.5 C 8.4375 -1.15625 8.484375 -0.90625 8.578125 -0.75 C 8.679688 -0.601562 8.84375 -0.53125 9.0625 -0.53125 C 9.21875 -0.53125 9.363281 -0.5625 9.5 -0.625 C 9.632812 -0.695312 9.800781 -0.8125 10 -0.96875 L 10.21875 -0.609375 C 9.925781 -0.390625 9.648438 -0.207031 9.390625 -0.0625 C 9.128906 0.0703125 8.78125 0.140625 8.34375 0.140625 C 7.945312 0.140625 7.617188 0.0703125 7.359375 -0.0625 C 7.097656 -0.195312 6.898438 -0.394531 6.765625 -0.65625 C 6.640625 -0.925781 6.578125 -1.269531 6.578125 -1.6875 C 6.210938 -1.070312 5.769531 -0.613281 5.25 -0.3125 C 4.738281 -0.0078125 4.160156 0.140625 3.515625 0.140625 Z M 4.25 -0.671875 C 4.707031 -0.671875 5.128906 -0.800781 5.515625 -1.0625 C 5.910156 -1.320312 6.265625 -1.710938 6.578125 -2.234375 L 6.578125 -6.265625 C 6.410156 -6.035156 6.171875 -5.84375 5.859375 -5.6875 C 5.546875 -5.53125 5.203125 -5.367188 4.828125 -5.203125 C 4.460938 -5.046875 4.109375 -4.863281 3.765625 -4.65625 C 3.429688 -4.445312 3.15625 -4.171875 2.9375 -3.828125 C 2.71875 -3.484375 2.609375 -3.035156 2.609375 -2.484375 C 2.609375 -1.941406 2.753906 -1.503906 3.046875 -1.171875 C 3.347656 -0.835938 3.75 -0.671875 4.25 -0.671875 Z M 4.25 -0.671875 "/></g></g></g><g fill="#6b9076" fill-opacity="1"><g transform="translate(242.633662, 70.528901)"><g><path d="M 4.28125 -10.875 C 4.820312 -10.875 5.285156 -10.785156 5.671875 -10.609375 C 6.054688 -10.429688 6.335938 -10.265625 6.515625 -10.109375 C 6.972656 -9.742188 7.25 -9.992188 7.34375 -10.859375 L 7.8125 -10.859375 C 7.78125 -10.472656 7.757812 -10.015625 7.75 -9.484375 C 7.738281 -8.960938 7.734375 -8.253906 7.734375 -7.359375 L 7.265625 -7.359375 C 7.179688 -7.867188 7.035156 -8.363281 6.828125 -8.84375 C 6.628906 -9.320312 6.335938 -9.710938 5.953125 -10.015625 C 5.578125 -10.328125 5.082031 -10.484375 4.46875 -10.484375 C 3.988281 -10.484375 3.585938 -10.347656 3.265625 -10.078125 C 2.941406 -9.816406 2.78125 -9.425781 2.78125 -8.90625 C 2.78125 -8.488281 2.898438 -8.132812 3.140625 -7.84375 C 3.390625 -7.550781 3.710938 -7.273438 4.109375 -7.015625 C 4.503906 -6.765625 4.9375 -6.488281 5.40625 -6.1875 C 5.925781 -5.863281 6.398438 -5.53125 6.828125 -5.1875 C 7.253906 -4.84375 7.59375 -4.460938 7.84375 -4.046875 C 8.09375 -3.640625 8.21875 -3.15625 8.21875 -2.59375 C 8.21875 -1.957031 8.050781 -1.425781 7.71875 -1 C 7.394531 -0.582031 6.96875 -0.265625 6.4375 -0.046875 C 5.914062 0.171875 5.335938 0.28125 4.703125 0.28125 C 4.398438 0.28125 4.113281 0.253906 3.84375 0.203125 C 3.582031 0.160156 3.328125 0.09375 3.078125 0 C 2.941406 -0.0703125 2.800781 -0.15625 2.65625 -0.25 C 2.519531 -0.34375 2.378906 -0.445312 2.234375 -0.5625 C 2.097656 -0.664062 1.972656 -0.660156 1.859375 -0.546875 C 1.753906 -0.429688 1.675781 -0.203125 1.625 0.140625 L 1.15625 0.140625 C 1.175781 -0.296875 1.191406 -0.828125 1.203125 -1.453125 C 1.222656 -2.085938 1.234375 -2.925781 1.234375 -3.96875 L 1.703125 -3.96875 C 1.796875 -3.195312 1.929688 -2.523438 2.109375 -1.953125 C 2.296875 -1.378906 2.578125 -0.929688 2.953125 -0.609375 C 3.335938 -0.285156 3.875 -0.125 4.5625 -0.125 C 4.832031 -0.125 5.109375 -0.1875 5.390625 -0.3125 C 5.671875 -0.4375 5.90625 -0.640625 6.09375 -0.921875 C 6.289062 -1.210938 6.390625 -1.597656 6.390625 -2.078125 C 6.390625 -2.679688 6.171875 -3.175781 5.734375 -3.5625 C 5.296875 -3.945312 4.742188 -4.347656 4.078125 -4.765625 C 3.578125 -5.085938 3.109375 -5.40625 2.671875 -5.71875 C 2.242188 -6.03125 1.894531 -6.382812 1.625 -6.78125 C 1.363281 -7.175781 1.234375 -7.65625 1.234375 -8.21875 C 1.234375 -8.84375 1.375 -9.347656 1.65625 -9.734375 C 1.9375 -10.128906 2.304688 -10.414062 2.765625 -10.59375 C 3.234375 -10.78125 3.738281 -10.875 4.28125 -10.875 Z M 4.28125 -10.875 "/></g></g></g></svg>