<svg xmlns="http://www.w3.org/2000/svg" xmlns:xlink="http://www.w3.org/1999/xlink" width="376" zoomAndPan="magnify" viewBox="0 0 282 81.749997" height="109" preserveAspectRatio="xMidYMid meet" version="1.0"><defs><g/><clipPath id="4782806d3d"><path d="M 151.304688 60.628906 L 157.40625 60.628906 L 157.40625 66.730469 L 151.304688 66.730469 Z M 151.304688 60.628906 " clip-rule="nonzero"/></clipPath><clipPath id="8e9c7b92b6"><path d="M 154.355469 60.628906 C 152.671875 60.628906 151.304688 61.996094 151.304688 63.679688 C 151.304688 65.363281 152.671875 66.730469 154.355469 66.730469 C 156.039062 66.730469 157.40625 65.363281 157.40625 63.679688 C 157.40625 61.996094 156.039062 60.628906 154.355469 60.628906 Z M 154.355469 60.628906 " clip-rule="nonzero"/></clipPath><clipPath id="6d0e1ebb3a"><path d="M 0.304688 0.628906 L 6.40625 0.628906 L 6.40625 6.730469 L 0.304688 6.730469 Z M 0.304688 0.628906 " clip-rule="nonzero"/></clipPath><clipPath id="544654d8a6"><path d="M 3.355469 0.628906 C 1.671875 0.628906 0.304688 1.996094 0.304688 3.679688 C 0.304688 5.363281 1.671875 6.730469 3.355469 6.730469 C 5.039062 6.730469 6.40625 5.363281 6.40625 3.679688 C 6.40625 1.996094 5.039062 0.628906 3.355469 0.628906 Z M 3.355469 0.628906 " clip-rule="nonzero"/></clipPath><clipPath id="a7e8e8d041"><rect x="0" width="7" y="0" height="7"/></clipPath></defs><g fill="#ffffff" fill-opacity="1"><g transform="translate(13.696288, 40.510154)"><g><path d="M 17.703125 -11.515625 C 19.171875 -11.191406 20.300781 -10.554688 21.09375 -9.609375 C 21.894531 -8.671875 22.296875 -7.457031 22.296875 -5.96875 C 22.296875 -4.050781 21.585938 -2.578125 20.171875 -1.546875 C 18.753906 -0.515625 16.664062 0 13.90625 0 L 3.640625 0 L 3.640625 -22.328125 L 13.265625 -22.328125 C 15.753906 -22.328125 17.679688 -21.828125 19.046875 -20.828125 C 20.421875 -19.828125 21.109375 -18.410156 21.109375 -16.578125 C 21.109375 -15.347656 20.804688 -14.300781 20.203125 -13.4375 C 19.597656 -12.582031 18.765625 -11.941406 17.703125 -11.515625 Z M 6 -20.375 L 6 -12.28125 L 13.109375 -12.28125 C 14.910156 -12.28125 16.300781 -12.625 17.28125 -13.3125 C 18.257812 -14 18.75 -15.003906 18.75 -16.328125 C 18.75 -17.648438 18.257812 -18.65625 17.28125 -19.34375 C 16.300781 -20.03125 14.910156 -20.375 13.109375 -20.375 Z M 13.875 -1.953125 C 15.875 -1.953125 17.382812 -2.289062 18.40625 -2.96875 C 19.425781 -3.644531 19.9375 -4.707031 19.9375 -6.15625 C 19.9375 -8.9375 17.914062 -10.328125 13.875 -10.328125 L 6 -10.328125 L 6 -1.953125 Z M 13.875 -1.953125 "/></g></g></g><g fill="#ffffff" fill-opacity="1"><g transform="translate(37.744818, 40.510154)"><g><path d="M 9.03125 -16.90625 C 11.21875 -16.90625 12.894531 -16.359375 14.0625 -15.265625 C 15.226562 -14.171875 15.8125 -12.546875 15.8125 -10.390625 L 15.8125 0 L 13.65625 0 L 13.65625 -2.609375 C 13.144531 -1.742188 12.394531 -1.066406 11.40625 -0.578125 C 10.414062 -0.0859375 9.238281 0.15625 7.875 0.15625 C 6.007812 0.15625 4.519531 -0.285156 3.40625 -1.171875 C 2.300781 -2.066406 1.75 -3.25 1.75 -4.71875 C 1.75 -6.144531 2.265625 -7.289062 3.296875 -8.15625 C 4.328125 -9.03125 5.972656 -9.46875 8.234375 -9.46875 L 13.546875 -9.46875 L 13.546875 -10.484375 C 13.546875 -11.929688 13.140625 -13.03125 12.328125 -13.78125 C 11.523438 -14.539062 10.347656 -14.921875 8.796875 -14.921875 C 7.734375 -14.921875 6.710938 -14.742188 5.734375 -14.390625 C 4.753906 -14.046875 3.914062 -13.566406 3.21875 -12.953125 L 2.203125 -14.640625 C 3.046875 -15.359375 4.0625 -15.914062 5.25 -16.3125 C 6.445312 -16.707031 7.707031 -16.90625 9.03125 -16.90625 Z M 8.234375 -1.625 C 9.503906 -1.625 10.597656 -1.914062 11.515625 -2.5 C 12.429688 -3.082031 13.109375 -3.925781 13.546875 -5.03125 L 13.546875 -7.78125 L 8.296875 -7.78125 C 5.421875 -7.78125 3.984375 -6.78125 3.984375 -4.78125 C 3.984375 -3.800781 4.351562 -3.03125 5.09375 -2.46875 C 5.84375 -1.90625 6.890625 -1.625 8.234375 -1.625 Z M 8.234375 -1.625 "/></g></g></g><g fill="#ffffff" fill-opacity="1"><g transform="translate(56.626428, 40.510154)"><g><path d="M 10.109375 0.15625 C 8.453125 0.15625 6.96875 -0.203125 5.65625 -0.921875 C 4.351562 -1.648438 3.328125 -2.664062 2.578125 -3.96875 C 1.835938 -5.28125 1.46875 -6.753906 1.46875 -8.390625 C 1.46875 -10.023438 1.835938 -11.488281 2.578125 -12.78125 C 3.328125 -14.082031 4.351562 -15.09375 5.65625 -15.8125 C 6.96875 -16.539062 8.453125 -16.90625 10.109375 -16.90625 C 11.554688 -16.90625 12.847656 -16.625 13.984375 -16.0625 C 15.117188 -15.5 16.015625 -14.671875 16.671875 -13.578125 L 14.984375 -12.4375 C 14.429688 -13.269531 13.726562 -13.890625 12.875 -14.296875 C 12.03125 -14.710938 11.109375 -14.921875 10.109375 -14.921875 C 8.898438 -14.921875 7.8125 -14.648438 6.84375 -14.109375 C 5.875 -13.566406 5.117188 -12.796875 4.578125 -11.796875 C 4.035156 -10.796875 3.765625 -9.660156 3.765625 -8.390625 C 3.765625 -7.085938 4.035156 -5.941406 4.578125 -4.953125 C 5.117188 -3.960938 5.875 -3.195312 6.84375 -2.65625 C 7.8125 -2.113281 8.898438 -1.84375 10.109375 -1.84375 C 11.109375 -1.84375 12.03125 -2.046875 12.875 -2.453125 C 13.726562 -2.859375 14.429688 -3.476562 14.984375 -4.3125 L 16.671875 -3.15625 C 16.015625 -2.070312 15.113281 -1.25 13.96875 -0.6875 C 12.820312 -0.125 11.535156 0.15625 10.109375 0.15625 Z M 10.109375 0.15625 "/></g></g></g><g fill="#ffffff" fill-opacity="1"><g transform="translate(74.327906, 40.510154)"><g><path d="M 9.375 -8.421875 L 5.421875 -4.78125 L 5.421875 0 L 3.15625 0 L 3.15625 -23.65625 L 5.421875 -23.65625 L 5.421875 -7.625 L 15.4375 -16.78125 L 18.234375 -16.78125 L 11.0625 -9.921875 L 18.90625 0 L 16.140625 0 Z M 9.375 -8.421875 "/></g></g></g><g fill="#c8aa6e" fill-opacity="1"><g transform="translate(99.734381, 40.510154)"><g><path d="M 20.636719 -5.289062 L 16.171875 -5.289062 L 16.171875 -5.867188 L 16.75 -5.867188 L 16.75 0.578125 L 13.296875 0.578125 L 13.296875 -5.867188 L 13.875 -5.867188 L 13.875 -5.289062 L 0.699219 -5.289062 L 0.699219 -7.730469 L 12.832031 -22.90625 L 16.855469 -22.90625 L 4.695312 -7.550781 L 4.242188 -7.910156 L 4.242188 -8.488281 L 13.9375 -8.488281 L 13.9375 -7.910156 L 13.359375 -7.910156 L 13.359375 -13.65625 L 16.75 -13.65625 L 16.75 -7.910156 L 16.171875 -7.910156 L 16.171875 -8.488281 L 21.214844 -8.488281 L 21.214844 -5.289062 Z M 20.636719 -6.449219 L 20.636719 -5.867188 L 20.058594 -5.867188 L 20.058594 -7.910156 L 20.636719 -7.910156 L 20.636719 -7.332031 L 15.59375 -7.332031 L 15.59375 -13.078125 L 16.171875 -13.078125 L 16.171875 -12.5 L 13.9375 -12.5 L 13.9375 -13.078125 L 14.515625 -13.078125 L 14.515625 -7.332031 L 3.046875 -7.332031 L 15.207031 -22.6875 L 15.660156 -22.328125 L 15.660156 -21.75 L 13.109375 -21.75 L 13.109375 -22.328125 L 13.5625 -21.96875 L 1.726562 -7.167969 L 1.277344 -7.527344 L 1.855469 -7.527344 L 1.855469 -5.867188 L 1.277344 -5.867188 L 1.277344 -6.449219 L 14.453125 -6.449219 L 14.453125 0 L 13.875 0 L 13.875 -0.578125 L 16.171875 -0.578125 L 16.171875 0 L 15.59375 0 L 15.59375 -6.449219 Z M 20.636719 -6.449219 "/></g></g></g><g fill="#c8aa6e" fill-opacity="1"><g transform="translate(120.816712, 40.510154)"><g><path d="M 10.558594 0.769531 C 8.71875 0.769531 7.074219 0.277344 5.625 -0.703125 C 4.183594 -1.679688 3.0625 -3.074219 2.261719 -4.886719 C 1.472656 -6.671875 1.082031 -8.765625 1.082031 -11.164062 C 1.082031 -13.5625 1.472656 -15.65625 2.261719 -17.441406 C 3.0625 -19.253906 4.183594 -20.648438 5.625 -21.625 C 7.074219 -22.609375 8.71875 -23.097656 10.558594 -23.097656 C 12.398438 -23.097656 14.042969 -22.609375 15.492188 -21.625 C 16.933594 -20.652344 18.058594 -19.257812 18.867188 -17.445312 C 19.667969 -15.65625 20.066406 -13.5625 20.066406 -11.164062 C 20.066406 -8.765625 19.667969 -6.671875 18.867188 -4.882812 C 18.058594 -3.070312 16.933594 -1.675781 15.492188 -0.703125 C 14.042969 0.277344 12.398438 0.769531 10.558594 0.769531 Z M 10.558594 -0.386719 C 12.164062 -0.386719 13.589844 -0.8125 14.84375 -1.660156 C 16.101562 -2.511719 17.09375 -3.742188 17.8125 -5.355469 C 18.546875 -6.992188 18.910156 -8.929688 18.910156 -11.164062 C 18.910156 -13.398438 18.546875 -15.335938 17.8125 -16.972656 C 17.09375 -18.585938 16.101562 -19.816406 14.84375 -20.667969 C 13.589844 -21.515625 12.164062 -21.941406 10.558594 -21.941406 C 8.953125 -21.941406 7.527344 -21.515625 6.273438 -20.667969 C 5.015625 -19.816406 4.03125 -18.585938 3.320312 -16.976562 C 2.597656 -15.335938 2.238281 -13.402344 2.238281 -11.164062 C 2.238281 -8.925781 2.597656 -6.992188 3.320312 -5.351562 C 4.03125 -3.742188 5.015625 -2.511719 6.273438 -1.660156 C 7.527344 -0.8125 8.953125 -0.386719 10.558594 -0.386719 Z M 10.558594 -2.492188 C 11.730469 -2.492188 12.757812 -2.816406 13.644531 -3.464844 C 14.546875 -4.121094 15.25 -5.089844 15.761719 -6.371094 C 16.289062 -7.683594 16.550781 -9.28125 16.550781 -11.164062 C 16.550781 -13.046875 16.289062 -14.644531 15.761719 -15.957031 C 15.25 -17.238281 14.546875 -18.207031 13.644531 -18.863281 C 12.757812 -19.511719 11.730469 -19.835938 10.558594 -19.835938 C 9.386719 -19.835938 8.359375 -19.511719 7.46875 -18.863281 C 6.570312 -18.207031 5.863281 -17.238281 5.351562 -15.957031 C 4.828125 -14.644531 4.566406 -13.046875 4.566406 -11.164062 C 4.566406 -9.28125 4.828125 -7.683594 5.351562 -6.371094 C 5.863281 -5.089844 6.570312 -4.121094 7.46875 -3.464844 C 8.359375 -2.816406 9.386719 -2.492188 10.558594 -2.492188 Z M 10.558594 -1.335938 C 9.136719 -1.335938 7.878906 -1.734375 6.789062 -2.53125 C 5.710938 -3.320312 4.875 -4.457031 4.28125 -5.941406 C 3.699219 -7.394531 3.410156 -9.132812 3.410156 -11.164062 C 3.410156 -13.195312 3.699219 -14.9375 4.28125 -16.386719 C 4.875 -17.871094 5.710938 -19.007812 6.789062 -19.796875 C 7.878906 -20.59375 9.136719 -20.992188 10.558594 -20.992188 C 11.980469 -20.992188 13.238281 -20.59375 14.328125 -19.796875 C 15.40625 -19.007812 16.242188 -17.871094 16.835938 -16.386719 C 17.417969 -14.9375 17.707031 -13.195312 17.707031 -11.164062 C 17.707031 -9.132812 17.417969 -7.394531 16.835938 -5.941406 C 16.242188 -4.457031 15.40625 -3.320312 14.328125 -2.53125 C 13.238281 -1.734375 11.980469 -1.335938 10.558594 -1.335938 Z M 10.558594 -1.335938 "/></g></g></g><g fill="#c8aa6e" fill-opacity="1"><g transform="translate(99.734381, 40.510154)"><g><path d="M 20.640625 -5.875 L 16.171875 -5.875 L 16.171875 0 L 13.875 0 L 13.875 -5.875 L 1.28125 -5.875 L 1.28125 -7.53125 L 13.109375 -22.328125 L 15.65625 -22.328125 L 4.234375 -7.90625 L 13.9375 -7.90625 L 13.9375 -13.078125 L 16.171875 -13.078125 L 16.171875 -7.90625 L 20.640625 -7.90625 Z M 20.640625 -5.875 "/></g></g></g><g fill="#c8aa6e" fill-opacity="1"><g transform="translate(120.816712, 40.510154)"><g><path d="M 10.5625 0.1875 C 8.832031 0.1875 7.289062 -0.265625 5.9375 -1.171875 C 4.59375 -2.085938 3.539062 -3.398438 2.78125 -5.109375 C 2.03125 -6.828125 1.65625 -8.84375 1.65625 -11.15625 C 1.65625 -13.476562 2.03125 -15.492188 2.78125 -17.203125 C 3.539062 -18.910156 4.59375 -20.222656 5.9375 -21.140625 C 7.289062 -22.054688 8.832031 -22.515625 10.5625 -22.515625 C 12.28125 -22.515625 13.8125 -22.054688 15.15625 -21.140625 C 16.507812 -20.222656 17.566406 -18.910156 18.328125 -17.203125 C 19.097656 -15.492188 19.484375 -13.476562 19.484375 -11.15625 C 19.484375 -8.84375 19.097656 -6.828125 18.328125 -5.109375 C 17.566406 -3.398438 16.507812 -2.085938 15.15625 -1.171875 C 13.8125 -0.265625 12.28125 0.1875 10.5625 0.1875 Z M 10.5625 -1.90625 C 11.851562 -1.90625 12.992188 -2.265625 13.984375 -2.984375 C 14.972656 -3.710938 15.742188 -4.769531 16.296875 -6.15625 C 16.847656 -7.539062 17.125 -9.207031 17.125 -11.15625 C 17.125 -13.113281 16.847656 -14.78125 16.296875 -16.15625 C 15.742188 -17.539062 14.972656 -18.59375 13.984375 -19.3125 C 12.992188 -20.039062 11.851562 -20.40625 10.5625 -20.40625 C 9.257812 -20.40625 8.113281 -20.039062 7.125 -19.3125 C 6.132812 -18.59375 5.363281 -17.539062 4.8125 -16.15625 C 4.257812 -14.78125 3.984375 -13.113281 3.984375 -11.15625 C 3.984375 -9.207031 4.257812 -7.539062 4.8125 -6.15625 C 5.363281 -4.769531 6.132812 -3.710938 7.125 -2.984375 C 8.113281 -2.265625 9.257812 -1.90625 10.5625 -1.90625 Z M 10.5625 -1.90625 "/></g></g></g><g fill="#ffffff" fill-opacity="1"><g transform="translate(141.940448, 38.944903)"><g><path d="M 18.265625 -16.78125 L 18.265625 0 L 16.109375 0 L 16.109375 -3.0625 C 15.515625 -2.039062 14.695312 -1.25 13.65625 -0.6875 C 12.613281 -0.125 11.421875 0.15625 10.078125 0.15625 C 7.890625 0.15625 6.160156 -0.453125 4.890625 -1.671875 C 3.628906 -2.898438 3 -4.691406 3 -7.046875 L 3 -16.78125 L 5.265625 -16.78125 L 5.265625 -7.265625 C 5.265625 -5.503906 5.695312 -4.164062 6.5625 -3.25 C 7.4375 -2.332031 8.679688 -1.875 10.296875 -1.875 C 12.066406 -1.875 13.460938 -2.410156 14.484375 -3.484375 C 15.503906 -4.566406 16.015625 -6.0625 16.015625 -7.96875 L 16.015625 -16.78125 Z M 18.265625 -16.78125 "/></g></g></g><g fill="#ffffff" fill-opacity="1"><g transform="translate(163.405512, 38.944903)"><g><path d="M 11.984375 -1.015625 C 11.566406 -0.640625 11.039062 -0.347656 10.40625 -0.140625 C 9.78125 0.0546875 9.128906 0.15625 8.453125 0.15625 C 6.878906 0.15625 5.664062 -0.265625 4.8125 -1.109375 C 3.96875 -1.960938 3.546875 -3.164062 3.546875 -4.71875 L 3.546875 -14.859375 L 0.546875 -14.859375 L 0.546875 -16.78125 L 3.546875 -16.78125 L 3.546875 -20.4375 L 5.796875 -20.4375 L 5.796875 -16.78125 L 10.90625 -16.78125 L 10.90625 -14.859375 L 5.796875 -14.859375 L 5.796875 -4.84375 C 5.796875 -3.84375 6.046875 -3.082031 6.546875 -2.5625 C 7.046875 -2.039062 7.765625 -1.78125 8.703125 -1.78125 C 9.171875 -1.78125 9.625 -1.851562 10.0625 -2 C 10.5 -2.15625 10.875 -2.367188 11.1875 -2.640625 Z M 11.984375 -1.015625 "/></g></g></g><g fill="#ffffff" fill-opacity="1"><g transform="translate(176.354714, 38.944903)"><g><path d="M 8.703125 -21.90625 C 7.722656 -21.90625 6.984375 -21.640625 6.484375 -21.109375 C 5.984375 -20.578125 5.734375 -19.789062 5.734375 -18.75 L 5.734375 -16.78125 L 10.90625 -16.78125 L 10.90625 -14.859375 L 5.796875 -14.859375 L 5.796875 0 L 3.546875 0 L 3.546875 -14.859375 L 0.546875 -14.859375 L 0.546875 -16.78125 L 3.546875 -16.78125 L 3.546875 -18.84375 C 3.546875 -20.375 3.984375 -21.585938 4.859375 -22.484375 C 5.742188 -23.378906 6.992188 -23.828125 8.609375 -23.828125 C 9.242188 -23.828125 9.859375 -23.734375 10.453125 -23.546875 C 11.054688 -23.367188 11.554688 -23.109375 11.953125 -22.765625 L 11.1875 -21.078125 C 10.53125 -21.628906 9.703125 -21.90625 8.703125 -21.90625 Z M 8.703125 -21.90625 "/></g></g></g><g fill="#ffffff" fill-opacity="1"><g transform="translate(189.718778, 38.944903)"><g><path d="M 3.15625 -16.78125 L 5.421875 -16.78125 L 5.421875 0 L 3.15625 0 Z M 4.3125 -20.4375 C 3.84375 -20.4375 3.445312 -20.597656 3.125 -20.921875 C 2.8125 -21.242188 2.65625 -21.625 2.65625 -22.0625 C 2.65625 -22.488281 2.8125 -22.859375 3.125 -23.171875 C 3.445312 -23.492188 3.84375 -23.65625 4.3125 -23.65625 C 4.78125 -23.65625 5.171875 -23.5 5.484375 -23.1875 C 5.804688 -22.882812 5.96875 -22.519531 5.96875 -22.09375 C 5.96875 -21.632812 5.804688 -21.242188 5.484375 -20.921875 C 5.171875 -20.597656 4.78125 -20.4375 4.3125 -20.4375 Z M 4.3125 -20.4375 "/></g></g></g><g fill="#ffffff" fill-opacity="1"><g transform="translate(198.298429, 38.944903)"><g><path d="M 11.984375 -1.015625 C 11.566406 -0.640625 11.039062 -0.347656 10.40625 -0.140625 C 9.78125 0.0546875 9.128906 0.15625 8.453125 0.15625 C 6.878906 0.15625 5.664062 -0.265625 4.8125 -1.109375 C 3.96875 -1.960938 3.546875 -3.164062 3.546875 -4.71875 L 3.546875 -14.859375 L 0.546875 -14.859375 L 0.546875 -16.78125 L 3.546875 -16.78125 L 3.546875 -20.4375 L 5.796875 -20.4375 L 5.796875 -16.78125 L 10.90625 -16.78125 L 10.90625 -14.859375 L 5.796875 -14.859375 L 5.796875 -4.84375 C 5.796875 -3.84375 6.046875 -3.082031 6.546875 -2.5625 C 7.046875 -2.039062 7.765625 -1.78125 8.703125 -1.78125 C 9.171875 -1.78125 9.625 -1.851562 10.0625 -2 C 10.5 -2.15625 10.875 -2.367188 11.1875 -2.640625 Z M 11.984375 -1.015625 "/></g></g></g><g fill="#ffffff" fill-opacity="1"><g transform="translate(210.801064, 38.944903)"><g><path d="M 11.984375 -1.015625 C 11.566406 -0.640625 11.039062 -0.347656 10.40625 -0.140625 C 9.78125 0.0546875 9.128906 0.15625 8.453125 0.15625 C 6.878906 0.15625 5.664062 -0.265625 4.8125 -1.109375 C 3.96875 -1.960938 3.546875 -3.164062 3.546875 -4.71875 L 3.546875 -14.859375 L 0.546875 -14.859375 L 0.546875 -16.78125 L 3.546875 -16.78125 L 3.546875 -20.4375 L 5.796875 -20.4375 L 5.796875 -16.78125 L 10.90625 -16.78125 L 10.90625 -14.859375 L 5.796875 -14.859375 L 5.796875 -4.84375 C 5.796875 -3.84375 6.046875 -3.082031 6.546875 -2.5625 C 7.046875 -2.039062 7.765625 -1.78125 8.703125 -1.78125 C 9.171875 -1.78125 9.625 -1.851562 10.0625 -2 C 10.5 -2.15625 10.875 -2.367188 11.1875 -2.640625 Z M 11.984375 -1.015625 "/></g></g></g><g fill="#ffffff" fill-opacity="1"><g transform="translate(223.14421, 38.944903)"><g><path d="M 17.765625 -7.6875 L 3.734375 -7.6875 C 3.859375 -5.945312 4.523438 -4.535156 5.734375 -3.453125 C 6.953125 -2.378906 8.484375 -1.84375 10.328125 -1.84375 C 11.367188 -1.84375 12.328125 -2.03125 13.203125 -2.40625 C 14.078125 -2.78125 14.832031 -3.328125 15.46875 -4.046875 L 16.75 -2.578125 C 16 -1.691406 15.066406 -1.015625 13.953125 -0.546875 C 12.835938 -0.078125 11.609375 0.15625 10.265625 0.15625 C 8.546875 0.15625 7.019531 -0.207031 5.6875 -0.9375 C 4.363281 -1.675781 3.328125 -2.691406 2.578125 -3.984375 C 1.835938 -5.285156 1.46875 -6.753906 1.46875 -8.390625 C 1.46875 -10.023438 1.820312 -11.488281 2.53125 -12.78125 C 3.25 -14.082031 4.226562 -15.09375 5.46875 -15.8125 C 6.707031 -16.539062 8.101562 -16.90625 9.65625 -16.90625 C 11.207031 -16.90625 12.597656 -16.539062 13.828125 -15.8125 C 15.066406 -15.09375 16.035156 -14.085938 16.734375 -12.796875 C 17.441406 -11.515625 17.796875 -10.046875 17.796875 -8.390625 Z M 9.65625 -14.953125 C 8.039062 -14.953125 6.6875 -14.4375 5.59375 -13.40625 C 4.5 -12.375 3.878906 -11.03125 3.734375 -9.375 L 15.625 -9.375 C 15.476562 -11.03125 14.859375 -12.375 13.765625 -13.40625 C 12.671875 -14.4375 11.300781 -14.953125 9.65625 -14.953125 Z M 9.65625 -14.953125 "/></g></g></g><g fill="#ffffff" fill-opacity="1"><g transform="translate(242.408542, 38.944903)"><g><path d="M 5.328125 -13.484375 C 5.859375 -14.617188 6.648438 -15.472656 7.703125 -16.046875 C 8.753906 -16.617188 10.054688 -16.90625 11.609375 -16.90625 L 11.609375 -14.703125 L 11.0625 -14.734375 C 9.300781 -14.734375 7.921875 -14.191406 6.921875 -13.109375 C 5.921875 -12.023438 5.421875 -10.503906 5.421875 -8.546875 L 5.421875 0 L 3.15625 0 L 3.15625 -16.78125 L 5.328125 -16.78125 Z M 5.328125 -13.484375 "/></g></g></g><g fill="#ffffff" fill-opacity="1"><g transform="translate(255.070689, 38.944903)"><g><path d="M 7.65625 0.15625 C 6.289062 0.15625 4.984375 -0.0351562 3.734375 -0.421875 C 2.492188 -0.816406 1.523438 -1.3125 0.828125 -1.90625 L 1.84375 -3.703125 C 2.550781 -3.148438 3.4375 -2.695312 4.5 -2.34375 C 5.5625 -1.988281 6.664062 -1.8125 7.8125 -1.8125 C 9.34375 -1.8125 10.472656 -2.050781 11.203125 -2.53125 C 11.941406 -3.007812 12.3125 -3.6875 12.3125 -4.5625 C 12.3125 -5.175781 12.109375 -5.65625 11.703125 -6 C 11.296875 -6.351562 10.785156 -6.617188 10.171875 -6.796875 C 9.554688 -6.984375 8.738281 -7.160156 7.71875 -7.328125 C 6.351562 -7.585938 5.253906 -7.847656 4.421875 -8.109375 C 3.597656 -8.378906 2.894531 -8.832031 2.3125 -9.46875 C 1.726562 -10.101562 1.4375 -10.988281 1.4375 -12.125 C 1.4375 -13.519531 2.019531 -14.664062 3.1875 -15.5625 C 4.351562 -16.457031 5.976562 -16.90625 8.0625 -16.90625 C 9.144531 -16.90625 10.226562 -16.757812 11.3125 -16.46875 C 12.40625 -16.1875 13.300781 -15.8125 14 -15.34375 L 13.015625 -13.515625 C 11.628906 -14.472656 9.976562 -14.953125 8.0625 -14.953125 C 6.625 -14.953125 5.535156 -14.695312 4.796875 -14.1875 C 4.066406 -13.675781 3.703125 -13.007812 3.703125 -12.1875 C 3.703125 -11.539062 3.90625 -11.023438 4.3125 -10.640625 C 4.726562 -10.265625 5.242188 -9.984375 5.859375 -9.796875 C 6.484375 -9.617188 7.335938 -9.4375 8.421875 -9.25 C 9.753906 -8.988281 10.828125 -8.726562 11.640625 -8.46875 C 12.453125 -8.21875 13.144531 -7.785156 13.71875 -7.171875 C 14.289062 -6.554688 14.578125 -5.707031 14.578125 -4.625 C 14.578125 -3.15625 13.960938 -1.988281 12.734375 -1.125 C 11.515625 -0.269531 9.820312 0.15625 7.65625 0.15625 Z M 7.65625 0.15625 "/></g></g></g><g clip-path="url(#4782806d3d)"><g clip-path="url(#8e9c7b92b6)"><g transform="matrix(1, 0, 0, 1, 151, 60)"><g clip-path="url(#a7e8e8d041)"><g clip-path="url(#6d0e1ebb3a)"><g clip-path="url(#544654d8a6)"><path fill="#2c3e2d" d="M 0.304688 0.628906 L 6.40625 0.628906 L 6.40625 6.730469 L 0.304688 6.730469 Z M 0.304688 0.628906 " fill-opacity="1" fill-rule="nonzero"/></g></g></g></g></g></g><g fill="#2c3e2d" fill-opacity="1"><g transform="translate(22.715259, 70.409352)"><g><path d="M 1.90625 0 L 1.90625 -14.65625 L 7.796875 -14.65625 C 9.304688 -14.65625 10.445312 -14.304688 11.21875 -13.609375 C 11.988281 -12.910156 12.375 -11.945312 12.375 -10.71875 C 12.375 -9.832031 12.148438 -9.101562 11.703125 -8.53125 C 11.253906 -7.957031 10.582031 -7.523438 9.6875 -7.234375 L 9.6875 -7.015625 C 10.144531 -6.816406 10.515625 -6.519531 10.796875 -6.125 C 11.085938 -5.726562 11.359375 -5.144531 11.609375 -4.375 L 13.078125 0 L 10.09375 0 L 8.65625 -4.375 C 8.507812 -4.820312 8.34375 -5.164062 8.15625 -5.40625 C 7.976562 -5.65625 7.742188 -5.832031 7.453125 -5.9375 C 7.171875 -6.050781 6.804688 -6.109375 6.359375 -6.109375 L 4.796875 -6.109375 L 4.796875 0 Z M 7.4375 -8.40625 C 8.84375 -8.40625 9.546875 -9.054688 9.546875 -10.359375 C 9.546875 -11.691406 8.84375 -12.359375 7.4375 -12.359375 L 4.796875 -12.359375 L 4.796875 -8.40625 Z M 7.4375 -8.40625 "/></g></g></g><g fill="#2c3e2d" fill-opacity="1"><g transform="translate(36.408878, 70.409352)"><g><path d="M 2.984375 -12.375 C 2.472656 -12.375 2.0625 -12.523438 1.75 -12.828125 C 1.4375 -13.140625 1.28125 -13.535156 1.28125 -14.015625 C 1.28125 -14.492188 1.4375 -14.882812 1.75 -15.1875 C 2.0625 -15.488281 2.472656 -15.640625 2.984375 -15.640625 C 3.316406 -15.640625 3.613281 -15.566406 3.875 -15.421875 C 4.132812 -15.285156 4.332031 -15.09375 4.46875 -14.84375 C 4.613281 -14.601562 4.6875 -14.328125 4.6875 -14.015625 C 4.6875 -13.703125 4.613281 -13.421875 4.46875 -13.171875 C 4.332031 -12.921875 4.132812 -12.722656 3.875 -12.578125 C 3.613281 -12.441406 3.316406 -12.375 2.984375 -12.375 Z M 1.59375 0 L 1.59375 -11.0625 L 4.375 -11.0625 L 4.375 0 Z M 1.59375 0 "/></g></g></g><g fill="#2c3e2d" fill-opacity="1"><g transform="translate(42.359141, 70.409352)"><g><path d="M 7.609375 0 L 4.296875 0 L 0.203125 -11.0625 L 3.125 -11.0625 L 5.859375 -3.171875 L 6.09375 -3.171875 L 8.859375 -11.0625 L 11.6875 -11.0625 Z M 7.609375 0 "/></g></g></g><g fill="#2c3e2d" fill-opacity="1"><g transform="translate(54.029178, 70.409352)"><g><path d="M 10.921875 -4.90625 L 3.8125 -4.90625 C 3.894531 -3.9375 4.171875 -3.234375 4.640625 -2.796875 C 5.109375 -2.359375 5.75 -2.140625 6.5625 -2.140625 C 7.195312 -2.140625 7.707031 -2.257812 8.09375 -2.5 C 8.488281 -2.738281 8.804688 -3.097656 9.046875 -3.578125 L 9.265625 -3.578125 L 11.109375 -2.390625 C 10.742188 -1.617188 10.195312 -0.992188 9.46875 -0.515625 C 8.738281 -0.0351562 7.769531 0.203125 6.5625 0.203125 C 5.414062 0.203125 4.425781 -0.0078125 3.59375 -0.4375 C 2.757812 -0.875 2.117188 -1.519531 1.671875 -2.375 C 1.222656 -3.238281 1 -4.289062 1 -5.53125 C 1 -6.78125 1.234375 -7.835938 1.703125 -8.703125 C 2.179688 -9.566406 2.820312 -10.207031 3.625 -10.625 C 4.4375 -11.050781 5.347656 -11.265625 6.359375 -11.265625 C 7.921875 -11.265625 9.117188 -10.847656 9.953125 -10.015625 C 10.785156 -9.191406 11.203125 -7.976562 11.203125 -6.375 C 11.203125 -5.789062 11.179688 -5.335938 11.140625 -5.015625 Z M 8.546875 -6.703125 C 8.515625 -7.535156 8.316406 -8.144531 7.953125 -8.53125 C 7.585938 -8.914062 7.054688 -9.109375 6.359375 -9.109375 C 4.953125 -9.109375 4.125 -8.304688 3.875 -6.703125 Z M 8.546875 -6.703125 "/></g></g></g><g fill="#2c3e2d" fill-opacity="1"><g transform="translate(66.039895, 70.409352)"><g><path d="M 1.59375 0 L 1.59375 -11.0625 L 4.296875 -11.0625 L 4.296875 -9.40625 L 4.5 -9.375 C 4.769531 -9.988281 5.117188 -10.4375 5.546875 -10.71875 C 5.984375 -11.007812 6.515625 -11.15625 7.140625 -11.15625 C 7.765625 -11.15625 8.242188 -11.050781 8.578125 -10.84375 L 8.09375 -8.4375 L 7.890625 -8.40625 C 7.710938 -8.476562 7.539062 -8.53125 7.375 -8.5625 C 7.207031 -8.59375 7 -8.609375 6.75 -8.609375 C 5.976562 -8.609375 5.390625 -8.335938 4.984375 -7.796875 C 4.578125 -7.253906 4.375 -6.378906 4.375 -5.171875 L 4.375 0 Z M 1.59375 0 "/></g></g></g><g fill="#2c3e2d" fill-opacity="1"><g transform="translate(74.70484, 70.409352)"><g/></g></g><g fill="#2c3e2d" fill-opacity="1"><g transform="translate(79.543185, 70.409352)"><g><path d="M 8.71875 0 L 5.21875 0 L 0.265625 -14.65625 L 3.34375 -14.65625 L 6.890625 -3.734375 L 7.140625 -3.734375 L 10.65625 -14.65625 L 13.65625 -14.65625 Z M 8.71875 0 "/></g></g></g><g fill="#2c3e2d" fill-opacity="1"><g transform="translate(92.525155, 70.409352)"><g><path d="M 4.3125 0.203125 C 3.601562 0.203125 2.988281 0.0703125 2.46875 -0.1875 C 1.945312 -0.445312 1.546875 -0.828125 1.265625 -1.328125 C 0.984375 -1.828125 0.84375 -2.429688 0.84375 -3.140625 C 0.84375 -3.796875 0.984375 -4.347656 1.265625 -4.796875 C 1.546875 -5.242188 1.976562 -5.609375 2.5625 -5.890625 C 3.15625 -6.171875 3.925781 -6.390625 4.875 -6.546875 C 5.53125 -6.648438 6.03125 -6.765625 6.375 -6.890625 C 6.71875 -7.023438 6.953125 -7.171875 7.078125 -7.328125 C 7.203125 -7.484375 7.265625 -7.6875 7.265625 -7.9375 C 7.265625 -8.289062 7.140625 -8.5625 6.890625 -8.75 C 6.640625 -8.9375 6.226562 -9.03125 5.65625 -9.03125 C 5.039062 -9.03125 4.453125 -8.890625 3.890625 -8.609375 C 3.335938 -8.335938 2.859375 -7.976562 2.453125 -7.53125 L 2.25 -7.53125 L 1.09375 -9.296875 C 1.65625 -9.910156 2.335938 -10.390625 3.140625 -10.734375 C 3.953125 -11.085938 4.835938 -11.265625 5.796875 -11.265625 C 7.253906 -11.265625 8.3125 -10.953125 8.96875 -10.328125 C 9.625 -9.710938 9.953125 -8.832031 9.953125 -7.6875 L 9.953125 -2.890625 C 9.953125 -2.390625 10.171875 -2.140625 10.609375 -2.140625 C 10.773438 -2.140625 10.9375 -2.171875 11.09375 -2.234375 L 11.234375 -2.203125 L 11.4375 -0.265625 C 11.28125 -0.160156 11.066406 -0.078125 10.796875 -0.015625 C 10.523438 0.046875 10.222656 0.078125 9.890625 0.078125 C 9.234375 0.078125 8.71875 -0.046875 8.34375 -0.296875 C 7.976562 -0.554688 7.710938 -0.957031 7.546875 -1.5 L 7.34375 -1.515625 C 6.800781 -0.367188 5.789062 0.203125 4.3125 0.203125 Z M 5.1875 -1.859375 C 5.832031 -1.859375 6.347656 -2.070312 6.734375 -2.5 C 7.117188 -2.9375 7.3125 -3.539062 7.3125 -4.3125 L 7.3125 -5.4375 L 7.125 -5.46875 C 6.945312 -5.332031 6.722656 -5.21875 6.453125 -5.125 C 6.191406 -5.039062 5.804688 -4.957031 5.296875 -4.875 C 4.691406 -4.769531 4.253906 -4.59375 3.984375 -4.34375 C 3.722656 -4.101562 3.59375 -3.757812 3.59375 -3.3125 C 3.59375 -2.84375 3.734375 -2.484375 4.015625 -2.234375 C 4.296875 -1.984375 4.6875 -1.859375 5.1875 -1.859375 Z M 5.1875 -1.859375 "/></g></g></g><g fill="#2c3e2d" fill-opacity="1"><g transform="translate(104.175249, 70.409352)"><g><path d="M 4.59375 0.203125 C 3.59375 0.203125 2.832031 -0.0625 2.3125 -0.59375 C 1.789062 -1.132812 1.53125 -1.953125 1.53125 -3.046875 L 1.53125 -15.5 L 4.296875 -15.5 L 4.296875 -3.15625 C 4.296875 -2.476562 4.578125 -2.140625 5.140625 -2.140625 C 5.304688 -2.140625 5.476562 -2.164062 5.65625 -2.21875 L 5.796875 -2.1875 L 6.046875 -0.046875 C 5.890625 0.0234375 5.679688 0.0820312 5.421875 0.125 C 5.171875 0.175781 4.894531 0.203125 4.59375 0.203125 Z M 4.59375 0.203125 "/></g></g></g><g fill="#2c3e2d" fill-opacity="1"><g transform="translate(110.526203, 70.409352)"><g><path d="M 4.59375 0.203125 C 3.59375 0.203125 2.832031 -0.0625 2.3125 -0.59375 C 1.789062 -1.132812 1.53125 -1.953125 1.53125 -3.046875 L 1.53125 -15.5 L 4.296875 -15.5 L 4.296875 -3.15625 C 4.296875 -2.476562 4.578125 -2.140625 5.140625 -2.140625 C 5.304688 -2.140625 5.476562 -2.164062 5.65625 -2.21875 L 5.796875 -2.1875 L 6.046875 -0.046875 C 5.890625 0.0234375 5.679688 0.0820312 5.421875 0.125 C 5.171875 0.175781 4.894531 0.203125 4.59375 0.203125 Z M 4.59375 0.203125 "/></g></g></g><g fill="#2c3e2d" fill-opacity="1"><g transform="translate(116.877157, 70.409352)"><g><path d="M 10.921875 -4.90625 L 3.8125 -4.90625 C 3.894531 -3.9375 4.171875 -3.234375 4.640625 -2.796875 C 5.109375 -2.359375 5.75 -2.140625 6.5625 -2.140625 C 7.195312 -2.140625 7.707031 -2.257812 8.09375 -2.5 C 8.488281 -2.738281 8.804688 -3.097656 9.046875 -3.578125 L 9.265625 -3.578125 L 11.109375 -2.390625 C 10.742188 -1.617188 10.195312 -0.992188 9.46875 -0.515625 C 8.738281 -0.0351562 7.769531 0.203125 6.5625 0.203125 C 5.414062 0.203125 4.425781 -0.0078125 3.59375 -0.4375 C 2.757812 -0.875 2.117188 -1.519531 1.671875 -2.375 C 1.222656 -3.238281 1 -4.289062 1 -5.53125 C 1 -6.78125 1.234375 -7.835938 1.703125 -8.703125 C 2.179688 -9.566406 2.820312 -10.207031 3.625 -10.625 C 4.4375 -11.050781 5.347656 -11.265625 6.359375 -11.265625 C 7.921875 -11.265625 9.117188 -10.847656 9.953125 -10.015625 C 10.785156 -9.191406 11.203125 -7.976562 11.203125 -6.375 C 11.203125 -5.789062 11.179688 -5.335938 11.140625 -5.015625 Z M 8.546875 -6.703125 C 8.515625 -7.535156 8.316406 -8.144531 7.953125 -8.53125 C 7.585938 -8.914062 7.054688 -9.109375 6.359375 -9.109375 C 4.953125 -9.109375 4.125 -8.304688 3.875 -6.703125 Z M 8.546875 -6.703125 "/></g></g></g><g fill="#2c3e2d" fill-opacity="1"><g transform="translate(128.887874, 70.409352)"><g><path d="M 2.453125 4.6875 C 1.972656 4.6875 1.539062 4.648438 1.15625 4.578125 C 0.769531 4.503906 0.457031 4.410156 0.21875 4.296875 L 0.65625 2.046875 L 0.84375 1.984375 C 1.007812 2.066406 1.210938 2.132812 1.453125 2.1875 C 1.703125 2.25 1.957031 2.28125 2.21875 2.28125 C 2.664062 2.28125 3.039062 2.21875 3.34375 2.09375 C 3.644531 1.976562 3.894531 1.785156 4.09375 1.515625 C 4.300781 1.242188 4.488281 0.867188 4.65625 0.390625 L 0.234375 -11.0625 L 3.140625 -11.0625 L 5.890625 -3.375 L 6.140625 -3.375 L 8.8125 -11.0625 L 11.640625 -11.0625 L 7.203125 0.6875 C 6.847656 1.632812 6.457031 2.394531 6.03125 2.96875 C 5.601562 3.550781 5.097656 3.984375 4.515625 4.265625 C 3.941406 4.546875 3.253906 4.6875 2.453125 4.6875 Z M 2.453125 4.6875 "/></g></g></g><g fill="#2c3e2d" fill-opacity="1"><g transform="translate(167.958068, 70.409352)"><g><path d="M 14.0625 0 L 11.015625 0 L 9.921875 -3.375 L 4.296875 -3.375 L 3.203125 0 L 0.21875 0 L 5.28125 -14.65625 L 9 -14.65625 Z M 6.96875 -11.59375 L 5.078125 -5.8125 L 9.109375 -5.8125 L 7.21875 -11.59375 Z M 6.96875 -11.59375 "/></g></g></g><g fill="#2c3e2d" fill-opacity="1"><g transform="translate(182.232689, 70.409352)"><g><path d="M 1.59375 0 L 1.59375 -11.0625 L 4.296875 -11.0625 L 4.296875 -9.40625 L 4.5 -9.375 C 4.769531 -9.988281 5.117188 -10.4375 5.546875 -10.71875 C 5.984375 -11.007812 6.515625 -11.15625 7.140625 -11.15625 C 7.765625 -11.15625 8.242188 -11.050781 8.578125 -10.84375 L 8.09375 -8.4375 L 7.890625 -8.40625 C 7.710938 -8.476562 7.539062 -8.53125 7.375 -8.5625 C 7.207031 -8.59375 7 -8.609375 6.75 -8.609375 C 5.976562 -8.609375 5.390625 -8.335938 4.984375 -7.796875 C 4.578125 -7.253906 4.375 -6.378906 4.375 -5.171875 L 4.375 0 Z M 1.59375 0 "/></g></g></g><g fill="#2c3e2d" fill-opacity="1"><g transform="translate(190.897635, 70.409352)"><g><path d="M 1.59375 0 L 1.59375 -15.5 L 4.375 -15.5 L 4.375 -6.890625 L 4.640625 -6.890625 L 7.84375 -11.0625 L 10.65625 -11.0625 L 10.65625 -10.828125 L 6.890625 -5.96875 L 11.078125 -0.25 L 11.078125 0 L 8.15625 0 L 4.640625 -4.65625 L 4.375 -4.65625 L 4.375 0 Z M 1.59375 0 "/></g></g></g><g fill="#2c3e2d" fill-opacity="1"><g transform="translate(201.986761, 70.409352)"><g><path d="M 4.3125 0.203125 C 3.601562 0.203125 2.988281 0.0703125 2.46875 -0.1875 C 1.945312 -0.445312 1.546875 -0.828125 1.265625 -1.328125 C 0.984375 -1.828125 0.84375 -2.429688 0.84375 -3.140625 C 0.84375 -3.796875 0.984375 -4.347656 1.265625 -4.796875 C 1.546875 -5.242188 1.976562 -5.609375 2.5625 -5.890625 C 3.15625 -6.171875 3.925781 -6.390625 4.875 -6.546875 C 5.53125 -6.648438 6.03125 -6.765625 6.375 -6.890625 C 6.71875 -7.023438 6.953125 -7.171875 7.078125 -7.328125 C 7.203125 -7.484375 7.265625 -7.6875 7.265625 -7.9375 C 7.265625 -8.289062 7.140625 -8.5625 6.890625 -8.75 C 6.640625 -8.9375 6.226562 -9.03125 5.65625 -9.03125 C 5.039062 -9.03125 4.453125 -8.890625 3.890625 -8.609375 C 3.335938 -8.335938 2.859375 -7.976562 2.453125 -7.53125 L 2.25 -7.53125 L 1.09375 -9.296875 C 1.65625 -9.910156 2.335938 -10.390625 3.140625 -10.734375 C 3.953125 -11.085938 4.835938 -11.265625 5.796875 -11.265625 C 7.253906 -11.265625 8.3125 -10.953125 8.96875 -10.328125 C 9.625 -9.710938 9.953125 -8.832031 9.953125 -7.6875 L 9.953125 -2.890625 C 9.953125 -2.390625 10.171875 -2.140625 10.609375 -2.140625 C 10.773438 -2.140625 10.9375 -2.171875 11.09375 -2.234375 L 11.234375 -2.203125 L 11.4375 -0.265625 C 11.28125 -0.160156 11.066406 -0.078125 10.796875 -0.015625 C 10.523438 0.046875 10.222656 0.078125 9.890625 0.078125 C 9.234375 0.078125 8.71875 -0.046875 8.34375 -0.296875 C 7.976562 -0.554688 7.710938 -0.957031 7.546875 -1.5 L 7.34375 -1.515625 C 6.800781 -0.367188 5.789062 0.203125 4.3125 0.203125 Z M 5.1875 -1.859375 C 5.832031 -1.859375 6.347656 -2.070312 6.734375 -2.5 C 7.117188 -2.9375 7.3125 -3.539062 7.3125 -4.3125 L 7.3125 -5.4375 L 7.125 -5.46875 C 6.945312 -5.332031 6.722656 -5.21875 6.453125 -5.125 C 6.191406 -5.039062 5.804688 -4.957031 5.296875 -4.875 C 4.691406 -4.769531 4.253906 -4.59375 3.984375 -4.34375 C 3.722656 -4.101562 3.59375 -3.757812 3.59375 -3.3125 C 3.59375 -2.84375 3.734375 -2.484375 4.015625 -2.234375 C 4.296875 -1.984375 4.6875 -1.859375 5.1875 -1.859375 Z M 5.1875 -1.859375 "/></g></g></g><g fill="#2c3e2d" fill-opacity="1"><g transform="translate(213.636855, 70.409352)"><g><path d="M 1.59375 0 L 1.59375 -11.0625 L 4.265625 -11.0625 L 4.265625 -9.4375 L 4.46875 -9.390625 C 5.15625 -10.640625 6.269531 -11.265625 7.8125 -11.265625 C 9.09375 -11.265625 10.03125 -10.914062 10.625 -10.21875 C 11.226562 -9.53125 11.53125 -8.519531 11.53125 -7.1875 L 11.53125 0 L 8.75 0 L 8.75 -6.84375 C 8.75 -7.582031 8.601562 -8.113281 8.3125 -8.4375 C 8.019531 -8.757812 7.546875 -8.921875 6.890625 -8.921875 C 6.097656 -8.921875 5.476562 -8.660156 5.03125 -8.140625 C 4.59375 -7.628906 4.375 -6.820312 4.375 -5.71875 L 4.375 0 Z M 1.59375 0 "/></g></g></g><g fill="#2c3e2d" fill-opacity="1"><g transform="translate(226.579178, 70.409352)"><g><path d="M 5.171875 0.203125 C 4.421875 0.203125 3.726562 0.113281 3.09375 -0.0625 C 2.46875 -0.238281 1.929688 -0.476562 1.484375 -0.78125 C 1.046875 -1.09375 0.71875 -1.453125 0.5 -1.859375 L 2.046875 -3.515625 L 2.25 -3.515625 C 2.625 -3.023438 3.0625 -2.65625 3.5625 -2.40625 C 4.0625 -2.15625 4.601562 -2.03125 5.1875 -2.03125 C 5.726562 -2.03125 6.132812 -2.125 6.40625 -2.3125 C 6.6875 -2.507812 6.828125 -2.789062 6.828125 -3.15625 C 6.828125 -3.4375 6.726562 -3.671875 6.53125 -3.859375 C 6.332031 -4.054688 6.015625 -4.207031 5.578125 -4.3125 L 4.109375 -4.65625 C 3.015625 -4.914062 2.210938 -5.316406 1.703125 -5.859375 C 1.203125 -6.398438 0.953125 -7.082031 0.953125 -7.90625 C 0.953125 -8.59375 1.125 -9.191406 1.46875 -9.703125 C 1.820312 -10.210938 2.316406 -10.597656 2.953125 -10.859375 C 3.597656 -11.128906 4.34375 -11.265625 5.1875 -11.265625 C 6.1875 -11.265625 7.015625 -11.117188 7.671875 -10.828125 C 8.328125 -10.546875 8.835938 -10.164062 9.203125 -9.6875 L 7.71875 -8.078125 L 7.515625 -8.078125 C 7.210938 -8.421875 6.867188 -8.671875 6.484375 -8.828125 C 6.097656 -8.992188 5.664062 -9.078125 5.1875 -9.078125 C 4.09375 -9.078125 3.546875 -8.738281 3.546875 -8.0625 C 3.546875 -7.769531 3.644531 -7.535156 3.84375 -7.359375 C 4.050781 -7.179688 4.414062 -7.035156 4.9375 -6.921875 L 6.296875 -6.609375 C 7.421875 -6.367188 8.238281 -5.984375 8.75 -5.453125 C 9.269531 -4.921875 9.53125 -4.207031 9.53125 -3.3125 C 9.53125 -2.613281 9.351562 -1.992188 9 -1.453125 C 8.65625 -0.921875 8.15625 -0.507812 7.5 -0.21875 C 6.851562 0.0625 6.078125 0.203125 5.171875 0.203125 Z M 5.171875 0.203125 "/></g></g></g><g fill="#2c3e2d" fill-opacity="1"><g transform="translate(236.76675, 70.409352)"><g><path d="M 4.3125 0.203125 C 3.601562 0.203125 2.988281 0.0703125 2.46875 -0.1875 C 1.945312 -0.445312 1.546875 -0.828125 1.265625 -1.328125 C 0.984375 -1.828125 0.84375 -2.429688 0.84375 -3.140625 C 0.84375 -3.796875 0.984375 -4.347656 1.265625 -4.796875 C 1.546875 -5.242188 1.976562 -5.609375 2.5625 -5.890625 C 3.15625 -6.171875 3.925781 -6.390625 4.875 -6.546875 C 5.53125 -6.648438 6.03125 -6.765625 6.375 -6.890625 C 6.71875 -7.023438 6.953125 -7.171875 7.078125 -7.328125 C 7.203125 -7.484375 7.265625 -7.6875 7.265625 -7.9375 C 7.265625 -8.289062 7.140625 -8.5625 6.890625 -8.75 C 6.640625 -8.9375 6.226562 -9.03125 5.65625 -9.03125 C 5.039062 -9.03125 4.453125 -8.890625 3.890625 -8.609375 C 3.335938 -8.335938 2.859375 -7.976562 2.453125 -7.53125 L 2.25 -7.53125 L 1.09375 -9.296875 C 1.65625 -9.910156 2.335938 -10.390625 3.140625 -10.734375 C 3.953125 -11.085938 4.835938 -11.265625 5.796875 -11.265625 C 7.253906 -11.265625 8.3125 -10.953125 8.96875 -10.328125 C 9.625 -9.710938 9.953125 -8.832031 9.953125 -7.6875 L 9.953125 -2.890625 C 9.953125 -2.390625 10.171875 -2.140625 10.609375 -2.140625 C 10.773438 -2.140625 10.9375 -2.171875 11.09375 -2.234375 L 11.234375 -2.203125 L 11.4375 -0.265625 C 11.28125 -0.160156 11.066406 -0.078125 10.796875 -0.015625 C 10.523438 0.046875 10.222656 0.078125 9.890625 0.078125 C 9.234375 0.078125 8.71875 -0.046875 8.34375 -0.296875 C 7.976562 -0.554688 7.710938 -0.957031 7.546875 -1.5 L 7.34375 -1.515625 C 6.800781 -0.367188 5.789062 0.203125 4.3125 0.203125 Z M 5.1875 -1.859375 C 5.832031 -1.859375 6.347656 -2.070312 6.734375 -2.5 C 7.117188 -2.9375 7.3125 -3.539062 7.3125 -4.3125 L 7.3125 -5.4375 L 7.125 -5.46875 C 6.945312 -5.332031 6.722656 -5.21875 6.453125 -5.125 C 6.191406 -5.039062 5.804688 -4.957031 5.296875 -4.875 C 4.691406 -4.769531 4.253906 -4.59375 3.984375 -4.34375 C 3.722656 -4.101562 3.59375 -3.757812 3.59375 -3.3125 C 3.59375 -2.84375 3.734375 -2.484375 4.015625 -2.234375 C 4.296875 -1.984375 4.6875 -1.859375 5.1875 -1.859375 Z M 5.1875 -1.859375 "/></g></g></g><g fill="#2c3e2d" fill-opacity="1"><g transform="translate(248.416844, 70.409352)"><g><path d="M 5.171875 0.203125 C 4.421875 0.203125 3.726562 0.113281 3.09375 -0.0625 C 2.46875 -0.238281 1.929688 -0.476562 1.484375 -0.78125 C 1.046875 -1.09375 0.71875 -1.453125 0.5 -1.859375 L 2.046875 -3.515625 L 2.25 -3.515625 C 2.625 -3.023438 3.0625 -2.65625 3.5625 -2.40625 C 4.0625 -2.15625 4.601562 -2.03125 5.1875 -2.03125 C 5.726562 -2.03125 6.132812 -2.125 6.40625 -2.3125 C 6.6875 -2.507812 6.828125 -2.789062 6.828125 -3.15625 C 6.828125 -3.4375 6.726562 -3.671875 6.53125 -3.859375 C 6.332031 -4.054688 6.015625 -4.207031 5.578125 -4.3125 L 4.109375 -4.65625 C 3.015625 -4.914062 2.210938 -5.316406 1.703125 -5.859375 C 1.203125 -6.398438 0.953125 -7.082031 0.953125 -7.90625 C 0.953125 -8.59375 1.125 -9.191406 1.46875 -9.703125 C 1.820312 -10.210938 2.316406 -10.597656 2.953125 -10.859375 C 3.597656 -11.128906 4.34375 -11.265625 5.1875 -11.265625 C 6.1875 -11.265625 7.015625 -11.117188 7.671875 -10.828125 C 8.328125 -10.546875 8.835938 -10.164062 9.203125 -9.6875 L 7.71875 -8.078125 L 7.515625 -8.078125 C 7.210938 -8.421875 6.867188 -8.671875 6.484375 -8.828125 C 6.097656 -8.992188 5.664062 -9.078125 5.1875 -9.078125 C 4.09375 -9.078125 3.546875 -8.738281 3.546875 -8.0625 C 3.546875 -7.769531 3.644531 -7.535156 3.84375 -7.359375 C 4.050781 -7.179688 4.414062 -7.035156 4.9375 -6.921875 L 6.296875 -6.609375 C 7.421875 -6.367188 8.238281 -5.984375 8.75 -5.453125 C 9.269531 -4.921875 9.53125 -4.207031 9.53125 -3.3125 C 9.53125 -2.613281 9.351562 -1.992188 9 -1.453125 C 8.65625 -0.921875 8.15625 -0.507812 7.5 -0.21875 C 6.851562 0.0625 6.078125 0.203125 5.171875 0.203125 Z M 5.171875 0.203125 "/></g></g></g></svg>